<svg xmlns="http://www.w3.org/2000/svg" viewBox="0 0 64 64"><path fill="#34a853" d="M56.581,38.975h-.805v-12.728c0-1.299-.532-2.566-1.459-3.477l-2.704-2.654c1.216-1.964,.984-4.577-.718-6.28-1.986-1.986-5.217-1.986-7.205,0-1.986,1.986-1.986,5.218,0,7.205,.993,.993,2.298,1.49,3.602,1.49,1.058,0,2.107-.344,2.999-.997l2.669,2.619c.559,.548,.879,1.312,.879,2.094v12.728h-6.002v-6.51c-.011-3.446-2.391-7.027-4.551-8.344-3.125-2.122-6.508-1.795-6.566-1.785-.077,0-.161-.002-.248-.003-.147-.003-.326-.007-.52,.003v-1.814c.298-.225,.587-.464,.857-.733,1.527-1.56,2.328-3.577,2.912-5.347,.212-.653,.481-1.518,.681-2.425,0,0,0,0,0-.001,0-.001,0-.003,0-.004,0-.002,0-.003,.001-.005,0,0,0-.001,0-.002,.262-1.142,.38-2.176,.361-3.16-.036-2.201-.781-4.2-2.099-5.629-3.084-3.324-9.093-2.622-12.402,.224-1.898,1.627-3.031,4.042-3.031,6.46,0,.69,.09,1.405,.265,2.125,0,.001,0,.002,0,.003,0,.003,.002,.006,.002,.008,.001,.004,.001,.009,.002,.013,0,.002,.002,.004,.003,.007,.294,1.309,.836,2.586,1.315,3.715,.56,1.317,1.092,2.494,1.925,3.571,.388,.506,.833,.926,1.301,1.296v1.699c-.197-.011-.377-.007-.525-.003-.088,.002-.173,.004-.164,.009-.147-.015-3.691-.373-6.825,1.896-2.11,1.381-4.382,4.921-4.371,8.231v6.507H7.419c-1.873,0-3.397,1.524-3.397,3.397v1.629c0,1.873,1.524,3.397,3.397,3.397h.8v13.035c0,1.415,1.152,2.567,2.567,2.567H53.213c1.416,0,2.567-1.152,2.567-2.567v-13.035h.8c1.873,0,3.397-1.524,3.397-3.397v-1.629c0-1.873-1.524-3.397-3.397-3.397Z" class="color7d8ff9 svgShape"/><path fill="#d9ffe3" d="M45.06,19.672c-.596-.596-.925-1.389-.925-2.233s.328-1.636,.925-2.232,1.39-.925,2.232-.925,1.636,.328,2.233,.925c1.231,1.231,1.231,3.234,0,4.465-1.232,1.231-3.234,1.23-4.465,0Z" class="colord9deff svgShape"/><path fill="#fff" d="M31.265,21.989c.072,.006,.145,.009,.217,.012,.089,.004,.176,.014,.265,.014,.076,0,.154-.015,.231-.018,.168-.006,.336-.019,.505-.04,.141-.017,.281-.038,.421-.064,.17-.032,.339-.073,.508-.118,.139-.037,.276-.076,.414-.122,.062-.021,.126-.033,.188-.055v1.855l-2.015,2.748-2.015-2.747v-1.722c.168,.056,.338,.104,.509,.144,.252,.058,.51,.091,.771,.113Z" class="colorffffff svgShape"/><path fill="#d9ffe3" d="M27.527,4.908c1.407-1.21,3.541-1.95,5.552-1.95,1.615,0,3.15,.477,4.166,1.572,.994,1.078,1.557,2.622,1.584,4.348v.003c.011,.536-.029,1.095-.12,1.692-.071-.028-.143-.054-.213-.084-.063-.028-.127-.055-.189-.085-.139-.068-.273-.144-.403-.223-.036-.022-.075-.041-.11-.064-.162-.105-.314-.219-.456-.339-.035-.03-.065-.062-.099-.093-.103-.093-.202-.189-.292-.289-.042-.046-.079-.094-.117-.141-.074-.091-.142-.184-.204-.279-.034-.051-.066-.103-.096-.156-.057-.1-.105-.203-.149-.306-.02-.048-.044-.095-.061-.144-.053-.152-.094-.306-.114-.462-.046-.359-.288-.663-.628-.787-.34-.123-.72-.048-.988,.196-.306,.281-.632,.545-.972,.796-.114,.084-.238,.157-.355,.237-.234,.16-.467,.32-.713,.466-.147,.087-.304,.164-.455,.246-.23,.124-.459,.249-.697,.361-.167,.078-.34,.146-.51,.219-.236,.1-.471,.199-.714,.287-.18,.065-.364,.121-.547,.18-.243,.078-.487,.154-.736,.22-.189,.05-.38,.093-.572,.136-.251,.056-.503,.109-.757,.153-.195,.034-.392,.062-.589,.088-.256,.034-.512,.063-.77,.085-.201,.017-.402,.03-.604,.039-.119,.005-.238,.004-.358,.007-.045-.318-.069-.631-.069-.936,0-1.86,.88-3.725,2.355-4.99Z" class="colord9deff svgShape"/><path fill="#fff" d="M26.605,15.012c-.312-.734-.63-1.485-.884-2.24,.092-.004,.183-.017,.276-.023,.198-.013,.394-.03,.591-.049,.235-.023,.468-.05,.701-.082,.196-.027,.392-.057,.587-.091,.231-.04,.459-.085,.687-.134,.192-.041,.383-.083,.573-.131,.228-.057,.453-.121,.677-.187,.184-.054,.368-.107,.549-.167,.227-.075,.449-.158,.671-.242,.172-.065,.345-.127,.514-.197,.229-.095,.451-.2,.674-.304,.154-.072,.312-.141,.463-.218,.243-.124,.477-.259,.711-.394,.121-.07,.247-.134,.366-.207,.349-.214,.688-.439,1.013-.678,.094,.177,.201,.347,.317,.514,.037,.054,.08,.105,.119,.157,.084,.112,.171,.222,.265,.328,.05,.057,.103,.113,.156,.168,.094,.098,.191,.193,.293,.286,.057,.052,.114,.104,.174,.155,.114,.096,.233,.186,.355,.275,.054,.039,.105,.08,.161,.118,.18,.122,.367,.238,.562,.344,.016,.008,.033,.015,.048,.024,.181,.096,.368,.185,.561,.266,.067,.028,.137,.052,.206,.079,.099,.038,.195,.08,.296,.113-.137,.497-.282,.96-.407,1.343-.539,1.634-1.209,3.321-2.448,4.587-.299,.299-.628,.566-.977,.794-1.14,.742-2.427,1.021-3.523,.769-.481-.113-.929-.313-1.379-.618-.466-.311-.893-.717-1.272-1.211-.696-.899-1.152-1.914-1.677-3.147Z" class="colorffffff svgShape"/><path fill="#d9ffe3" d="M18.1 32.465c-.008-2.541 1.835-5.521 3.532-6.633 2.55-1.844 5.489-1.567 5.606-1.559.104.001.214 0 .33-.003.197-.005.557-.013.668.072l2.984 4.069c.183.249.473.396.781.396s.599-.147.781-.396l2.984-4.069c.007-.01.01-.022.016-.032.107-.054.456-.045.646-.041.115.002.225.004.408-.001.028-.005 2.843-.257 5.403 1.48 1.725 1.053 3.653 4.07 3.663 6.72v6.507H18.1v-6.51zM53.843 60.433c0 .347-.283.63-.63.63H10.787c-.347 0-.63-.282-.63-.63v-1.724H53.843v1.724z" class="colord9deff svgShape"/><rect width="43.687" height="9.373" x="10.157" y="47.398" fill="#d9ffe3" class="colord9deff svgShape"/><path fill="#fff" d="M58.041,44.002c0,.805-.655,1.46-1.46,1.46h-1.753c-.006,0-.011-.003-.016-.003H9.188c-.006,0-.011,.003-.016,.003h-1.753c-.805,0-1.46-.655-1.46-1.46v-1.629c0-.805,.655-1.46,1.46-1.46h9.7s.008,.002,.012,.002h29.738s.008-.002,.012-.002h9.7c.805,0,1.46,.655,1.46,1.46v1.629Z" class="colorffffff svgShape"/><path fill="#34a853" d="M26.751 42.218h-2.601c-.535 0-.969.434-.969.969s.434.969.969.969h2.601c.535 0 .969-.434.969-.969s-.434-.969-.969-.969zM33.28 42.218h-2.601c-.535 0-.969.434-.969.969s.434.969.969.969h2.601c.535 0 .969-.434.969-.969s-.434-.969-.969-.969zM39.849 42.218h-2.601c-.535 0-.969.434-.969.969s.434.969.969.969h2.601c.535 0 .969-.434.969-.969s-.434-.969-.969-.969z" class="color7d8ff9 svgShape"/></svg>