<svg xmlns="http://www.w3.org/2000/svg" viewBox="0 0 64 64"><path fill="#34a853" d="M60.258,3.744H29.367c-1.507,0-2.732,1.226-2.732,2.732V26.858l-1.754,1.31c-.381,.283-.907,.213-1.197-.155l-3.874-4.924c-.658-.822-1.633-1.294-2.676-1.294h-7.483c-1.118,0-2.159,.545-2.78,1.449L1.587,30.744c-1.004,1.45-.69,3.413,.713,4.47l4.023,3.029c.037,.03,.076,.059,.116,.087v.185c0,1.376,1.124,2.497,2.507,2.497h8.854c1.387,0,2.516-1.12,2.516-2.497v-5.355l.319,.442c.646,.907,1.607,1.492,2.706,1.647,1.107,.156,2.202-.142,3.081-.841l1.305-1.032c.463,.355,1.026,.575,1.64,.575h30.891c1.512,0,2.742-1.226,2.742-2.732V6.476c0-1.507-1.23-2.732-2.742-2.732Z" class="colorfa90bc svgShape"/><path fill="#defce6" d="M25.219,32.887c-.461,.367-1.034,.524-1.607,.442-.568-.08-1.065-.383-1.402-.857l-2.077-2.88c-.245-.341-.684-.485-1.083-.355-.4,.129-.671,.501-.671,.922v8.355c0,.303-.265,.559-.579,.559H8.946c-.226,0-.423-.139-.515-.331,.611-.116,1.182-.439,1.595-.955,.365-.468,.557-1.031,.557-1.629,0-.77-.327-1.499-.897-1.999l-1.852-1.631,1.871-2.205c.346-.408,.297-1.019-.112-1.365-.409-.347-1.02-.298-1.365,.112l-2.487,2.93c-.342,.403-.298,1.005,.098,1.354l2.567,2.261c.154,.135,.238,.328,.238,.544,0,.113-.026,.281-.14,.428-.162,.204-.411,.302-.655,.266-.038-.019-.086-.015-.126-.029-.085-.031-.151-.062-.213-.112l-4.046-3.047c-.569-.428-.695-1.227-.29-1.812l5.285-7.502c.266-.387,.711-.618,1.19-.618h7.483c.451,0,.875,.207,1.158,.561l3.869,4.917c.946,1.201,2.648,1.424,3.879,.509l3.156-2.358c.316-.227,.665-.29,1.091-.028,.079,.042,.155,.105,.213,.177,.156,.196,.226,.442,.197,.692-.029,.246-.15,.465-.356,.627l-5.122,4.057Z" class="colorfcdeed svgShape"/><path fill="#fff" d="M61.063,31.217c0,.438-.361,.794-.804,.794H29.451l.248-.197,1.651-1.306,.209-.171c.081-.064,.148-.141,.221-.213,.06-.059,.128-.112,.182-.175,.069-.081,.122-.172,.18-.259,.045-.067,.098-.128,.137-.198,.058-.104,.099-.218,.143-.329,.025-.061,.058-.118,.079-.182,.057-.178,.098-.363,.12-.554,.064-.55-.035-1.091-.269-1.576l2.587-4.312c.174,.167,.408,.272,.668,.272h18.419c.535,0,.969-.434,.969-.969s-.434-.969-.969-.969h-18.088l.917-1.528c.275-.459,.127-1.054-.332-1.329-.46-.275-1.054-.127-1.329,.332l-4.279,7.131c-.067-.03-.138-.051-.208-.075-.043-.015-.085-.031-.129-.044-.179-.052-.362-.086-.549-.102-.065-.006-.128-.005-.194-.007-.151-.003-.303,.005-.455,.026-.077,.01-.152,.023-.228,.039-.162,.035-.321,.086-.478,.149-.034,.014-.07,.017-.103,.032V6.476c0-.438,.357-.795,.795-.795h30.891c.443,0,.804,.357,.804,.795V31.217Z" class="colorffffff svgShape"/><path fill="#34a853" d="M14.108 20.088c2.795 0 5.068-2.274 5.068-5.068s-2.274-5.068-5.068-5.068-5.068 2.274-5.068 5.068 2.274 5.068 5.068 5.068zm0-8.199c1.727 0 3.131 1.404 3.131 3.131s-1.404 3.131-3.131 3.131-3.131-1.404-3.131-3.131 1.404-3.131 3.131-3.131zM18.538 51.236c-4.354 0-7.896 3.542-7.896 7.975 0 .576.469 1.045 1.044 1.045h13.704c.576 0 1.044-.469 1.044-1.123 0-4.354-3.542-7.897-7.897-7.897z" class="colorfa90bc svgShape"/><path fill="#defce6" d="M12.635,58.318c.398-2.902,2.894-5.145,5.903-5.145,2.989,0,5.471,2.212,5.895,5.145H12.635Z" class="colorfcdeed svgShape"/><path fill="#34a853" d="M22.227 46.895c0-2.034-1.655-3.689-3.689-3.689s-3.688 1.655-3.688 3.689 1.655 3.688 3.688 3.688 3.689-1.655 3.689-3.688zm-5.439 0c0-.965.785-1.751 1.751-1.751s1.751.786 1.751 1.751-.786 1.751-1.751 1.751-1.751-.785-1.751-1.751zM36.645 51.236c-4.354 0-7.897 3.542-7.897 7.975 0 .576.469 1.045 1.045 1.045h13.704c.576 0 1.044-.469 1.044-1.123 0-4.354-3.542-7.897-7.897-7.897z" class="colorfa90bc svgShape"/><path fill="#defce6" d="M30.741,58.318c.398-2.902,2.894-5.145,5.904-5.145,2.989,0,5.471,2.212,5.895,5.145h-11.799Z" class="colorfcdeed svgShape"/><path fill="#34a853" d="M40.334 46.895c0-2.034-1.655-3.689-3.689-3.689s-3.689 1.655-3.689 3.689 1.655 3.688 3.689 3.688 3.689-1.655 3.689-3.688zm-5.44 0c0-.965.786-1.751 1.751-1.751s1.751.786 1.751 1.751-.786 1.751-1.751 1.751-1.751-.785-1.751-1.751zM54.752 51.236c-4.354 0-7.897 3.542-7.897 7.975 0 .576.469 1.045 1.044 1.045h13.704c.576 0 1.044-.469 1.044-1.123 0-4.354-3.542-7.897-7.897-7.897z" class="colorfa90bc svgShape"/><path fill="#defce6" d="M48.848,58.318c.398-2.902,2.894-5.145,5.904-5.145,2.989,0,5.471,2.212,5.895,5.145h-11.799Z" class="colorfcdeed svgShape"/><path fill="#34a853" d="M58.44 46.895c0-2.034-1.655-3.689-3.689-3.689s-3.689 1.655-3.689 3.689 1.655 3.688 3.689 3.688 3.689-1.655 3.689-3.688zm-5.44 0c0-.965.786-1.751 1.751-1.751s1.751.786 1.751 1.751-.786 1.751-1.751 1.751-1.751-.785-1.751-1.751zM54.027 8.892h-18.419c-.535 0-.969.434-.969.969s.434.969.969.969h18.419c.535 0 .969-.434.969-.969s-.434-.969-.969-.969zM54.027 14.883h-18.419c-.535 0-.969.434-.969.969s.434.969.969.969h18.419c.535 0 .969-.434.969-.969s-.434-.969-.969-.969zM54.027 26.864h-18.419c-.535 0-.969.434-.969.969s.434.969.969.969h18.419c.535 0 .969-.434.969-.969s-.434-.969-.969-.969z" class="colorfa90bc svgShape"/></svg>