<svg xmlns="http://www.w3.org/2000/svg" viewBox="0 0 20 20"><g fill="#231F20"><path d="M7 12c-3.9 0-7 3.1-7 7 0 .6.4 1 1 1h12c.6 0 1-.4 1-1 0-3.9-3.1-7-7-7zm-4.9 6c.5-2.3 2.5-4 4.9-4s4.4 1.7 4.9 4H2.1zM7 11c2.2 0 4-1.8 4-4S9.2 3 7 3 3 4.8 3 7s1.8 4 4 4zm0-6c1.1 0 2 .9 2 2s-.9 2-2 2-2-.9-2-2 .9-2 2-2z"/><path d="M19 0H7c-.5 0-1 .4-1 1s.4 1 1 1h11v8h-1.7c-.9.1-1 .8-1 1.1l.2 1.4-1.7-2.2c-.2-.2-.5-.3-.8-.3h-1c-.6 0-1 .4-1 1s.4 1 1 1h.5l3.7 4.6c.5.5 1 .3 1.2.3.4-.2.7-.6.6-1.1l-.5-3.8H19c.6 0 1-.4 1-1V1c0-.6-.4-1-1-1z"/></g></svg>