<svg xmlns="http://www.w3.org/2000/svg" viewBox="0 0 64 64"><path fill="#34a853" d="M32 30.556c-5.22 0-9.468 4.248-9.468 9.468v1.923c0 1.057.859 1.917 1.916 1.917h15.105c1.057 0 1.916-.86 1.916-1.917v-1.923c0-5.22-4.248-9.468-9.468-9.468zm7.531 11.371l-15.061.021v-1.923c0-4.152 3.378-7.531 7.531-7.531s7.531 3.378 7.531 7.531v1.902zM31.984 29.934c2.687 0 4.873-2.194 4.873-4.891s-2.186-4.891-4.873-4.891-4.873 2.194-4.873 4.891 2.186 4.891 4.873 4.891zm0-7.845c1.619 0 2.936 1.325 2.936 2.954s-1.317 2.954-2.936 2.954-2.936-1.325-2.936-2.954 1.317-2.954 2.936-2.954z" class="color000000 svgShape"/><path fill="#34a853" d="M60.214,29.214c-1.195,0-2.208,.763-2.603,1.826h-4.094l-4.481-7.795,3.183-1.846c.305,.254,.659,.446,1.054,.552,.239,.064,.482,.096,.723,.096,.483,0,.96-.128,1.39-.377,1.329-.77,1.785-2.481,1.019-3.814-.372-.648-.973-1.111-1.693-1.304s-1.47-.093-2.115,.28c-1.033,.6-1.529,1.768-1.342,2.885l-3.183,1.846-4.469-7.776,2.062-3.588c.15,.025,.298,.06,.451,.06,.241,0,.484-.032,.725-.096,.72-.193,1.321-.656,1.693-1.303,.766-1.333,.309-3.043-1.019-3.814-.645-.373-1.394-.471-2.113-.281-.72,.193-1.323,.656-1.695,1.305-.595,1.037-.443,2.298,.275,3.171l-2.051,3.569h-8.96v-3.712c1.058-.397,1.817-1.412,1.817-2.61,0-1.54-1.25-2.794-2.786-2.794s-2.786,1.254-2.786,2.794c0,1.197,.759,2.213,1.817,2.609v3.712h-8.949l-2.051-3.569c.719-.873,.871-2.134,.275-3.171h0c-.373-.649-.975-1.112-1.695-1.305-.719-.19-1.468-.092-2.113,.281-1.327,.77-1.784,2.481-1.019,3.814,.372,.648,.973,1.111,1.693,1.304,.24,.064,.483,.096,.725,.096,.152,0,.301-.035,.451-.06l2.056,3.578-4.471,7.778-3.196-1.853c.188-1.117-.309-2.286-1.342-2.886-.644-.373-1.394-.47-2.113-.281-.72,.193-1.323,.656-1.695,1.305-.765,1.333-.308,3.044,1.019,3.814,.43,.249,.907,.377,1.391,.377,.241,0,.484-.032,.725-.096,.394-.106,.747-.298,1.052-.551l3.195,1.853-4.485,7.802H6.389c-.395-1.063-1.408-1.826-2.603-1.826-1.536,0-2.786,1.254-2.786,2.795s1.25,2.794,2.786,2.794c1.195,0,2.208-.763,2.602-1.825h4.094l4.469,7.775-3.188,1.848c-.305-.253-.658-.446-1.053-.552-.719-.189-1.469-.092-2.113,.281-1.329,.77-1.785,2.481-1.019,3.814,.372,.648,.973,1.112,1.694,1.305,.239,.063,.482,.096,.724,.096,.483,0,.96-.128,1.39-.377,1.034-.6,1.53-1.769,1.342-2.886l3.189-1.849,4.489,7.81-2.046,3.559c-.388-.066-.788-.056-1.18,.049-.721,.193-1.323,.656-1.696,1.304h0c-.765,1.334-.308,3.045,1.019,3.814,.43,.249,.907,.377,1.391,.377,.241,0,.484-.032,.725-.096,.72-.193,1.322-.656,1.692-1.303,.597-1.037,.446-2.298-.274-3.172l2.051-3.568h8.927v3.695c-1.058,.397-1.817,1.412-1.817,2.61,0,1.54,1.25,2.794,2.786,2.794s2.786-1.254,2.786-2.794c0-1.197-.759-2.213-1.817-2.61v-3.695h8.963l2.051,3.568c-.719,.874-.872,2.134-.275,3.171,.372,.648,.973,1.111,1.693,1.304,.24,.064,.483,.096,.725,.096,.483,0,.96-.128,1.39-.377,1.328-.769,1.785-2.481,1.02-3.814-.373-.648-.975-1.111-1.695-1.304-.392-.104-.792-.114-1.18-.048l-2.048-3.564,4.475-7.786,3.176,1.842c-.188,1.117,.308,2.286,1.342,2.886,.43,.249,.907,.377,1.391,.377,.241,0,.483-.032,.723-.096,.72-.193,1.323-.656,1.695-1.305,.765-1.333,.308-3.044-1.019-3.814-.644-.373-1.394-.473-2.115-.28-.394,.106-.747,.298-1.052,.551l-3.176-1.842,4.481-7.796h4.094c.395,1.062,1.408,1.825,2.602,1.825,1.536,0,2.786-1.254,2.786-2.794s-1.25-2.795-2.786-2.795Zm-6.645-10.704c.131-.076,.275-.114,.422-.114,.073,0,.147,.009,.219,.029,.219,.059,.402,.2,.516,.398,.237,.41,.096,.936-.31,1.171h0c-.196,.114-.419,.145-.64,.085-.219-.059-.403-.2-.517-.397-.236-.41-.096-.937,.311-1.172ZM32,5.633c.468,0,.849,.384,.849,.856s-.38,.856-.849,.856-.849-.384-.849-.856,.38-.856,.849-.856ZM10.218,20.065c-.216,.061-.445,.028-.641-.085-.407-.236-.546-.762-.31-1.171,.114-.199,.297-.34,.517-.398,.072-.02,.146-.029,.219-.029,.146,0,.29,.039,.421,.114,.408,.236,.547,.762,.311,1.172-.114,.198-.296,.339-.516,.397Zm.196,25.426c-.196,.113-.423,.145-.64,.085-.219-.059-.402-.2-.516-.398-.237-.41-.096-.936,.31-1.171h0c.131-.076,.274-.114,.421-.114,.073,0,.147,.009,.219,.029,.219,.059,.402,.2,.516,.398,.237,.41,.096,.935-.311,1.171Zm21.57,12.877c-.468,0-.849-.384-.849-.856s.38-.856,.849-.856,.849,.384,.849,.856-.38,.856-.849,.856Zm21.782-14.432c.072-.02,.146-.029,.219-.029,.147,0,.291,.039,.423,.114,.407,.236,.546,.762,.31,1.171-.114,.199-.297,.34-.517,.398-.217,.059-.445,.027-.64-.085-.408-.237-.548-.762-.311-1.172,.114-.198,.296-.339,.516-.397ZM45.385,7.037c.114-.199,.297-.34,.517-.398,.072-.02,.146-.029,.219-.029,.146,0,.29,.039,.421,.114,.408,.237,.548,.762,.311,1.171h0c-.114,.199-.296,.34-.516,.398-.217,.06-.445,.028-.641-.085-.407-.236-.546-.762-.31-1.171Zm-28.225,.859c-.236-.411-.096-.937,.311-1.172,.131-.076,.275-.114,.421-.114,.073,0,.147,.009,.219,.029,.219,.058,.402,.2,.517,.397,.236,.411,.096,.937-.311,1.172-.196,.114-.423,.145-.64,.085-.219-.059-.402-.2-.516-.397ZM3.786,32.865c-.468,0-.849-.384-.849-.856s.38-.857,.849-.857,.848,.384,.848,.857-.38,.856-.848,.856Zm14.845,24.116c-.114,.198-.296,.339-.516,.397-.217,.06-.445,.028-.641-.085-.407-.236-.546-.762-.31-1.172,.114-.198,.298-.34,.517-.397,.22-.061,.445-.028,.64,.085,.408,.237,.548,.762,.311,1.172Zm27.691-1.257c.219,.059,.403,.2,.517,.397,.236,.411,.096,.937-.311,1.172-.196,.114-.423,.145-.64,.085-.219-.059-.402-.2-.516-.397-.236-.411-.096-.936,.311-1.172,.131-.076,.275-.114,.421-.114,.073,0,.147,.009,.219,.029Zm.601-15.162c-.019,.026-.046,.043-.063,.071-.017,.03-.018,.063-.032,.093l-4.912,8.544h-9.849c-.029-.003-.055-.017-.084-.017s-.055,.014-.084,.017h-9.817l-4.957-8.624c-.005-.009-.004-.019-.009-.028-.005-.008-.014-.013-.019-.021l-4.937-8.588L22.083,14.748h19.835l4.932,8.58c.009,.018,.008,.037,.018,.054,.014,.024,.034,.041,.049,.064l4.922,8.562-4.916,8.552Zm13.291-7.696c-.467,0-.848-.384-.848-.856s.38-.857,.848-.857,.849,.384,.849,.857-.38,.856-.849,.856Z" class="color000000 svgShape"/></svg>