<svg xmlns="http://www.w3.org/2000/svg" viewBox="0 0 64 64"><path fill="#34a853" d="M19 44v18h-4l-3-14-3 14H5V44" class="color94b6e3 svgShape"/><path fill="#94e3a9" d="M10 24h4c3.31 0 6 2.69 6 6v14H4V30c0-3.31 2.69-6 6-6zm38.32 24.34A6.002 6.002 0 0 0 45 53.71V60c0 .55.22 1.05.59 1.41.36.37.86.59 1.41.59 1.1 0 2-.9 2-2v-4c0-1.1.9-2 2-2h5c3.31 0 6-2.69 6-6v-9c0-1.66-.67-3.16-1.76-4.24A5.944 5.944 0 0 0 56 33c-3.31 0-6 2.69-6 6v3h-8c-.55 0-1.05.22-1.41.59-.37.36-.59.86-.59 1.41 0 1.1.9 2 2 2h11l-4.68 2.34z" class="color94dbe3 svgShape"/><path fill="#c3f4d0" d="M38.51 50H25.48a5.97 5.97 0 0 1-4.24-1.76L19 46h26l-2.24 2.24A5.987 5.987 0 0 1 38.52 50zM28 62c0-2.21 1.79-4 4-4s4 1.79 4 4" class="colorc3eaf4 svgShape"/><circle cx="56" cy="25" r="5" fill="#94e3a9" class="color94dbe3 svgShape"/><path fill="#93e2a8" d="M21 2v8h4l-2 6 8-6h8V2H21z" class="colore2cc93 svgShape"/><path fill="#34a853" d="m20.3 32.07-3.28-2.34c-.96-.69-2.28-.58-3.12.26-1.08 1.08-.9 2.88.37 3.72l6.03 4.02 10.92-8.49A2.02 2.02 0 0 0 28.81 26l-8.51 6.08Z" class="color94b6e3 svgShape"/><circle cx="12" cy="15" r="6" fill="#34a853" class="color94b6e3 svgShape"/><path d="M56 31c3.31 0 6-2.69 6-6s-2.69-6-6-6-6 2.69-6 6 2.69 6 6 6zm0-10c2.21 0 4 1.79 4 4s-1.79 4-4 4-4-1.79-4-4 1.79-4 4-4zm7 27v-9c0-3.86-3.14-7-7-7s-7 3.14-7 7v2h-7c-1.65 0-3 1.35-3 3 0 .35.07.69.18 1H20c.55 0 1-.45 1-1v-5.55l10.83-8.43c.68-.53 1.11-1.33 1.16-2.2s-.27-1.71-.88-2.32a3.009 3.009 0 0 0-3.89-.32L21 30.34V30c0-3.86-3.14-7-7-7h-4c-3.86 0-7 3.14-7 7v14c0 .55.45 1 1 1v16H1v2h62v-2h-5v-6.29c2.89-.86 5-3.54 5-6.71zm-21-1h.59l-.54.54c-.95.94-2.2 1.46-3.54 1.46H25.48a5.01 5.01 0 0 1-3.54-1.46L21.4 47h20.59zM20.88 32.88l8.51-6.08c.41-.29.96-.25 1.31.11.21.21.32.49.3.79s-.16.56-.39.74l-10.35 8.05-5.43-3.62c-.36-.24-.58-.62-.62-1.04s.11-.84.41-1.14a1.41 1.41 0 0 1 1.83-.15l3.28 2.34c.35.25.81.25 1.16 0zM10.24 61 12 52.77 13.76 61h-3.53zM18 61h-2.19l-2.83-13.21c-.1-.46-.51-.79-.98-.79s-.88.33-.98.79L8.19 61H6V45h12v16zm1-18H5V30c0-2.76 2.24-5 5-5h4c2.73 0 4.94 2.19 4.99 4.91l-1.39-1a3.43 3.43 0 0 0-4.41.36c-.73.73-1.09 1.73-.98 2.75.1 1.02.65 1.94 1.51 2.51l5.29 3.52v4.94zm8.1 18H20V48.41l.54.54A6.96 6.96 0 0 0 25.49 51H31v6.1a5.01 5.01 0 0 0-3.9 3.9zm2.08 0c.41-1.16 1.51-2 2.82-2s2.4.84 2.82 2h-5.63zm7.71 0a5.01 5.01 0 0 0-3.9-3.9V51h5.51c1.87 0 3.63-.73 4.95-2.05L45.4 47h3.35l-.89.45a6.95 6.95 0 0 0-3.87 6.26V60c0 .35.07.69.18 1h-7.29zm19.1 0h-6.18c.11-.31.18-.65.18-1v-4c0-.55.45-1 1-1h5v6zm0-8h-5c-1.65 0-3 1.35-3 3v4c0 .55-.45 1-1 1s-1-.45-1-1v-6.29c0-1.91 1.06-3.62 2.76-4.47L53.22 47h.76c.55 0 1-.45 1-1v-8h-2v7h-11c-.55 0-1-.45-1-1s.45-1 1-1h8c.55 0 1-.45 1-1v-3c0-2.76 2.24-5 5-5s5 2.24 5 5v9c0 2.76-2.24 5-5 5zM21 11h2.61l-1.56 4.68c-.14.42 0 .87.36 1.13.17.13.38.19.58.19s.42-.07.6-.2l7.73-5.8h7.67c.55 0 1-.45 1-1V2c0-.55-.45-1-1-1H21c-.55 0-1 .45-1 1v8c0 .55.45 1 1 1zm1-8h16v6h-7c-.22 0-.43.07-.6.2l-5.44 4.08.99-2.96A1.01 1.01 0 0 0 25 9h-3V3z" class="color000000 svgShape"/><path d="M25 5h2v2h-2zM29 5h2v2h-2zM33 5h2v2h-2zM12 22c3.86 0 7-3.14 7-7s-3.14-7-7-7-7 3.14-7 7 3.14 7 7 7Zm0-12c2.76 0 5 2.24 5 5s-2.24 5-5 5-5-2.24-5-5 2.24-5 5-5Z" class="color000000 svgShape"/></svg>