<svg xmlns="http://www.w3.org/2000/svg" viewBox="0 0 512 512"><linearGradient id="a" x1="77.139" x2="434.86" y1="461.378" y2="103.657" gradientUnits="userSpaceOnUse"><stop class="stopColorfcc60e svgShape" offset="0" stop-color="#34a853"/><stop class="stopColore92e29 svgShape" offset="1" stop-color="#29e95c"/></linearGradient><path fill="url(#a)" d="M137.932 441.493a8 8 0 0 1-8 8h-18.617c-29.701 0-57.646-11.587-78.687-32.627S0 367.881 0 338.179a8 8 0 0 1 16 0c0 25.429 9.923 49.355 27.941 67.373 18.019 18.019 41.945 27.941 67.373 27.941h18.617a8 8 0 0 1 8.001 8zM504 330.179a8 8 0 0 0-8 8c0 25.429-9.923 49.355-27.942 67.373-18.018 18.019-41.944 27.941-67.372 27.941h-18.617a8 8 0 0 0 0 16h18.617c29.701 0 57.646-11.587 78.686-32.627 21.04-21.04 32.628-48.985 32.628-78.687a8 8 0 0 0-8-8zM204.145 367.28c14.055 14.056 21.795 32.712 21.795 52.533V504a8 8 0 0 1-8 8h-51.021a8 8 0 0 1-8-8v-84.187c0-1.924-.768-3.751-2.162-5.145-1.394-1.395-3.221-2.162-5.145-2.162h-40.297c-19.821 0-38.479-7.74-52.533-21.794C44.726 376.656 36.985 358 36.985 338.179V226.71c0-10.146 4.549-19.243 11.707-25.38-11.16-7.192-18.572-19.72-18.572-33.956 0-22.264 18.113-40.376 40.377-40.376s40.376 18.112 40.376 40.376c0 14.248-7.425 26.787-18.602 33.976 7.177 6.137 11.737 15.226 11.737 25.36v3.652l20.365 13.141h74.595c13.435 0 24.365 10.931 24.365 24.366s-10.931 24.365-24.365 24.365l-81.746-.016a24.425 24.425 0 0 1-13.11-3.873l-.104-.067v49.9c0 1.925.768 3.752 2.162 5.146 1.393 1.393 3.22 2.16 5.145 2.16h40.297c19.821.001 38.477 7.742 52.533 21.796zm-84.487-107.777-30.837-19.898a8.265 8.265 0 0 0-6.26-1.118c-2.175.475-4.034 1.768-5.236 3.641s-1.604 4.103-1.129 6.276a8.274 8.274 0 0 0 3.64 5.236l32.935 21.252a8.432 8.432 0 0 0 4.505 1.327l81.694.016c4.61 0 8.363-3.753 8.363-8.365 0-4.613-3.753-8.366-8.365-8.366h-79.31zM46.12 167.374c0 13.441 10.936 24.377 24.377 24.377s24.376-10.936 24.376-24.377-10.935-24.376-24.376-24.376-24.377 10.935-24.377 24.376zm163.819 252.439c0-15.548-6.076-30.187-17.109-41.219-11.032-11.033-25.671-17.109-41.219-17.109h-40.297c-6.197 0-12.042-2.432-16.459-6.846-4.416-4.419-6.848-10.264-6.848-16.461v-60.224l-16.831-10.861c-5.453-3.5-9.229-8.931-10.613-15.28a24.175 24.175 0 0 1 3.297-18.33c3.511-5.469 8.941-9.243 15.291-10.629a24.332 24.332 0 0 1 8.312-.371c-1.913-7.574-8.818-13.208-17.043-13.208-9.613 0-17.435 7.821-17.435 17.435v111.469c0 15.548 6.076 30.187 17.109 41.221 11.032 11.031 25.672 17.107 41.22 17.107h40.297c6.197 0 12.043 2.432 16.459 6.848s6.848 10.262 6.848 16.459V496h35.021v-76.187zm190.747-7.306h-40.297c-1.925 0-3.752.768-5.146 2.162-1.394 1.394-2.161 3.221-2.161 5.145V504a8 8 0 0 1-8 8h-51.021a8 8 0 0 1-8-8v-84.187c0-19.821 7.74-38.478 21.795-52.533 14.056-14.055 32.712-21.795 52.533-21.795h40.297c1.925 0 3.752-.768 5.146-2.162 1.393-1.393 2.16-3.221 2.16-5.145v-49.9l-.088.057a24.44 24.44 0 0 1-13.127 3.884l-81.743.016c-13.437 0-24.367-10.931-24.367-24.365 0-13.436 10.931-24.366 24.365-24.366h74.595l20.365-13.141v-3.652c0-10.135 4.56-19.224 11.737-25.36-11.177-7.188-18.603-19.727-18.603-33.976 0-22.264 18.113-40.376 40.377-40.376s40.376 18.112 40.376 40.376c0 14.235-7.411 26.764-18.571 33.956 7.157 6.137 11.706 15.235 11.706 25.38V338.18c0 19.822-7.74 38.479-21.795 52.534-14.055 14.053-32.711 21.793-52.533 21.793zm16.44-245.133c0 13.441 10.936 24.377 24.377 24.377s24.376-10.936 24.376-24.377-10.935-24.376-24.376-24.376-24.377 10.935-24.377 24.376zm15.021 86.276a8.281 8.281 0 0 0 3.656-5.247 8.272 8.272 0 0 0-1.129-6.275 8.28 8.28 0 0 0-5.236-3.642 8.284 8.284 0 0 0-6.276 1.129l-30.82 19.888h-79.31c-4.612 0-8.365 3.753-8.365 8.366 0 4.612 3.753 8.365 8.365 8.365l81.691-.016a8.45 8.45 0 0 0 4.521-1.337l32.903-21.231zm-71.758 142.857h40.297c15.548 0 30.187-6.075 41.219-17.108 11.033-11.032 17.109-25.672 17.109-41.22V226.71c0-9.613-7.82-17.435-17.434-17.435-8.226 0-15.131 5.635-17.044 13.209a24.333 24.333 0 0 1 8.312.37c6.35 1.386 11.78 5.16 15.291 10.63a24.172 24.172 0 0 1 3.297 18.329 24.171 24.171 0 0 1-10.63 15.291l-16.814 10.85v60.225c0 6.195-2.431 12.04-6.845 16.458-4.42 4.417-10.265 6.849-16.462 6.849h-40.297c-15.548 0-30.187 6.076-41.219 17.109-11.033 11.032-17.109 25.671-17.109 41.219V496h35.021v-76.187c0-6.196 2.432-12.041 6.846-16.458 4.418-4.417 10.263-6.848 16.462-6.848zm6.812-69.699a8 8 0 0 0 0-16H144.798a8 8 0 0 0 0 16H248V504a8 8 0 0 0 16 0V326.808h103.201zm-218.46-175.654c-12.476-19.259-17.786-42.203-14.981-65.104C140.323 32.443 189.276-5.836 242.885.736c12.002 1.47 23.406 5.063 33.794 10.534 46.166.26 86.069 32.964 95.284 78.508 4.576 22.612 1.065 45.9-9.875 66.071l16.05 32.259a7.998 7.998 0 0 1-1.165 8.857 7.997 7.997 0 0 1-8.645 2.255l-33.471-11.737c-11.603 8.729-25.156 14.824-39.47 17.721a97.955 97.955 0 0 1-64.972-9.306 98.087 98.087 0 0 1-11.341-.723 98.24 98.24 0 0 1-40.728-14.6l-32.456 14.304a8.001 8.001 0 0 1-10.645-10.316l13.496-33.409zM303.35 31.949a99.795 99.795 0 0 1 4.792 5.68c16.114 20.61 23.237 46.263 20.057 72.231-4.654 38.011-30.634 68.29-64.462 80.363a81.978 81.978 0 0 0 28.477-.701c13.242-2.68 25.701-8.627 36.03-17.2a8.007 8.007 0 0 1 7.757-1.393l19.041 6.677-9.182-18.454a7.994 7.994 0 0 1 .31-7.691c10.596-17.59 14.187-38.369 10.111-58.509-5.849-28.907-26.458-51.609-52.931-61.003zM164.27 145.542a8.001 8.001 0 0 1 .907 7.645l-7.72 19.111 18.463-8.137a8 8 0 0 1 7.842.786c10.965 7.744 23.849 12.705 37.258 14.348 3.364.412 6.711.612 10.019.612 40.781.003 76.2-30.506 81.28-71.992 2.66-21.727-3.299-43.188-16.78-60.432-13.482-17.244-32.872-28.206-54.599-30.866-21.723-2.655-43.188 3.299-60.432 16.78-17.244 13.482-28.206 32.872-30.867 54.599-2.498 20.396 2.697 40.833 14.629 57.546zm104.751-37.587c5.522 0 10-4.478 10-10s-4.477-10-10-10-10 4.477-10 10 4.476 10 10 10zm-37.854 0c5.523 0 10-4.478 10-10s-4.478-10-10-10c-5.523 0-10 4.477-10 10s4.477 10 10 10zm-37.667 0c5.523 0 10-4.478 10-10s-4.477-10-10-10c-5.522 0-10 4.478-10 10s4.477 10 10 10z"/></svg>