<svg xmlns="http://www.w3.org/2000/svg" enable-background="new 0 0 48 48" viewBox="0 0 48 48"><path fill="#34a853" d="M15.072,7.383c-1.078,0-1.957,0.881-1.957,1.959v2v2.707v1.641v3.449c-0.001,0.447,0.276,0.858,0.693,1.023
		c0.417,0.165,0.901,0.054,1.207-0.273l0.523-0.561v8.422l-0.395,0.285l-3.121-2.85c-0.206-0.188-0.429-0.314-0.633-0.41
		l-0.002-0.002c-0.028-0.014-0.074-0.037-0.127-0.059l-0.006-0.002c-0.005-0.002-0.012-0.004-0.018-0.006
		c-0.098-0.038-0.182-0.061-0.244-0.078c-0.041-0.012-0.124-0.037-0.234-0.057c-0.112-0.02-0.202-0.025-0.258-0.029
		c-0.002,0-0.006-0.002-0.008-0.002c-0.002,0-0.005-0.002-0.008-0.002c-0.033-0.004-0.08-0.008-0.145-0.008L4.479,24.52
		c-1.343-0.003-2.45,1.098-2.453,2.441L2,38.154c-0.003,1.344,1.096,2.446,2.439,2.449l5.863,0.012
		c1.342,0.003,2.45-1.094,2.453-2.438l0.012-5.516l0.244,0.223l0.059,0.053c0.017,0.016,0.037,0.027,0.059,0.035
		c0.626,0.666,1.549,0.94,2.41,0.732v1.266c0,1.208,0.974,2.182,2.182,2.182h10.486V37.15c0.322-0.018,0.646-0.096,0.953-0.244
		l5.643-2.734c0.013-0.006,0.021-0.012,0.029-0.016c0.004-0.002,0.006-0.002,0.012-0.006c0.003-0.002,0.016-0.01,0.016-0.01
		l0.014-0.01c0,0,0.004-0.006,0.006-0.008c0.125-0.065,0.245-0.139,0.355-0.229l0.01,4.283c0.003,1.344,1.111,2.442,2.453,2.439
		l5.863-0.014c1.343-0.003,2.442-1.105,2.439-2.449l-0.025-11.193c-0.003-1.344-1.109-2.444-2.453-2.441l-5.604,0.012h-0.027
		c-0.016,0-0.031,0.002-0.047,0.006c-0.377-0.021-0.748,0.035-1.088,0.174c-0.012,0.004-0.048,0.017-0.094,0.037
		c-0.002,0-0.004,0.001-0.006,0.002c-0.088,0.04-0.174,0.089-0.258,0.141c-0.012,0.005-0.024,0.012-0.035,0.02l-0.002,0.002
		c-0.043,0.027-0.085,0.054-0.125,0.082c-0.088,0.063-0.172,0.133-0.25,0.207l-0.004,0.004l-0.002,0.002
		c-0.031,0.029-0.062,0.06-0.092,0.092c-0.004,0.004-0.006,0.006-0.01,0.01c-0.008,0.006-0.014,0.013-0.023,0.021
		c-0.027,0.026-0.066,0.063-0.109,0.115c-0.002,0.004-0.004,0.008-0.006,0.012l-3.279,4.039V16.225c0-1.208-0.975-2.18-2.182-2.18
		h-3.463v-2.703v-2c0-1.078-0.879-1.959-1.957-1.959h-3.385h-0.932h-2.576H15.072z M15.072,9.043h2.895h2.576h0.932h3.385
		c0.199,0,0.295,0.099,0.295,0.299v2v2.707v1.793c0,0.2-0.096,0.297-0.295,0.297h-3.521h-0.795h-2.576h-0.27h-0.291H16.77
		c-0.333,0-0.662,0.144-0.889,0.387l-1.105,1.184v-2.02v-1.641v-2.707v-2C14.775,9.143,14.873,9.043,15.072,9.043z M16.863,11.494
		c-0.575,0.008-1.037,0.476-1.037,1.051c0,0.58,0.471,1.051,1.051,1.051s1.051-0.471,1.051-1.051s-0.471-1.051-1.051-1.051
		C16.873,11.494,16.868,11.494,16.863,11.494z M20.016,11.494c-0.575,0.008-1.037,0.476-1.037,1.051c0,0.58,0.471,1.051,1.051,1.051
		s1.051-0.471,1.051-1.051s-0.471-1.051-1.051-1.051C20.025,11.494,20.02,11.494,20.016,11.494z M23.131,11.494
		c-0.575,0.008-1.037,0.476-1.037,1.051c0,0.58,0.471,1.051,1.051,1.051s1.051-0.471,1.051-1.051s-0.471-1.051-1.051-1.051
		C23.14,11.494,23.135,11.494,23.131,11.494z M7.301,14.24c-0.262,0.005-0.522,0.032-0.779,0.082
		c-1.179,0.228-2.25,0.937-2.922,1.932s-0.932,2.254-0.703,3.434c0.228,1.179,0.937,2.25,1.932,2.922s2.252,0.932,3.432,0.703
		c1.179-0.228,2.251-0.938,2.924-1.934s0.932-2.252,0.703-3.432c-0.203-1.05-0.784-2.019-1.615-2.691S8.37,14.219,7.301,14.24z
		 M40.498,14.24c-1.035,0.025-2.055,0.413-2.846,1.082s-1.342,1.608-1.539,2.625c-0.229,1.179,0.031,2.438,0.703,3.434
		s1.744,1.704,2.924,1.932c1.18,0.229,2.437-0.031,3.432-0.703s1.703-1.743,1.932-2.922s-0.031-2.438-0.703-3.434
		s-1.742-1.704-2.922-1.932C41.155,14.26,40.826,14.232,40.498,14.24z M26.816,15.711h3.465c0.307,0,0.508,0.204,0.508,0.518v14.311
		l-3.818,1.852c-1.156,0.561-1.677,1.91-1.256,3.096h-7.998c-0.307,0-0.51-0.202-0.51-0.516v-2.236l4.283-3.088
		c1.118-0.807,1.375-2.385,0.568-3.502c-0.807-1.118-2.385-1.377-3.504-0.57c-0.005,0.004-0.011,0.008-0.016,0.012l-1.332,0.961
		v-8.748h0.199h0.291h0.27h2.576h0.795h3.521c1.078,0,1.957-0.877,1.957-1.955V15.711z M7.332,15.928c0,0,0.001,0,0.001,0
		c0.662-0.013,1.363,0.23,1.875,0.645c0.513,0.415,0.892,1.047,1.018,1.695c0.14,0.724-0.03,1.554-0.443,2.166
		c-0.413,0.611-1.12,1.079-1.844,1.219s-1.554-0.03-2.166-0.443c-0.611-0.413-1.079-1.12-1.219-1.844s0.03-1.554,0.443-2.166
		c0.413-0.611,1.12-1.079,1.844-1.219C7.003,15.949,7.166,15.931,7.332,15.928z M40.539,15.93c0.209-0.005,0.417,0.012,0.619,0.051
		c0.724,0.14,1.431,0.609,1.844,1.221c0.413,0.612,0.584,1.44,0.443,2.164s-0.607,1.431-1.219,1.844s-1.442,0.583-2.166,0.443
		s-1.431-0.607-1.844-1.219c-0.413-0.612-0.584-1.44-0.443-2.164c0.121-0.629,0.482-1.245,0.971-1.658
		C39.232,16.198,39.899,15.945,40.539,15.93z M4.475,26.211l5.857,0.012h0.006c0.016,0.002,0.029,0.004,0.045,0.006
		c0.079,0.006,0.078,0.006,0.088,0.008l-0.002-0.002c0.003,0-0.022-0.004,0.068,0.021c0.006,0.002,0.012,0.002,0.018,0.004
		c0.044,0.012,0.06,0.016,0.064,0.018h0.002l0.004,0.002c-0.007-0.003-0.016-0.006,0.033,0.018c0.004,0.002,0.009,0.004,0.014,0.006
		c0.102,0.048,0.167,0.092,0.211,0.133l3.236,2.953c0.524,0.479,1.313,0.522,1.889,0.107l3.535-2.549l0.002-0.002
		c0.369-0.264,0.876-0.182,1.143,0.188s0.184,0.877-0.186,1.143l-5.023,3.623c-0.007,0.006-0.014,0.012-0.021,0.018
		c-0.054,0.041-0.107,0.073-0.162,0.098c-0.005,0.003-0.012,0.005-0.018,0.008c-0.329,0.152-0.729,0.066-0.971-0.232l-0.717-0.666
		c-0.961-0.877-2.507-0.197-2.512,1.104l-0.014,5.947c-0.001,0.419-0.336,0.753-0.758,0.752l-5.863-0.014
		c-0.42-0.001-0.753-0.333-0.752-0.754l0.025-11.193C3.718,26.545,4.053,26.21,4.475,26.211z M43.525,26.211
		c0.422-0.001,0.757,0.334,0.758,0.754l0.025,11.193c0.001,0.421-0.334,0.753-0.754,0.754l-5.861,0.014
		c-0.422,0.001-0.757-0.333-0.758-0.752l-0.01-4.723c-0.004-1.355-1.662-2.01-2.592-1.023c-0.133,0.141-0.238,0.206-0.236,0.205
		c-0.011,0.006-0.021,0.012-0.031,0.018c0.006-0.003,0.006-0.004-0.014,0.006c-0.002,0-0.004,0.001-0.006,0.002l-5.623,2.729
		c-0.41,0.199-0.896,0.029-1.096-0.381s-0.029-0.895,0.381-1.094l5.219-2.533c0.197-0.096,0.373-0.234,0.512-0.404l3.6-4.436
		c0.002-0.002,0.006-0.004,0.008-0.006c0.023-0.021,0.045-0.045,0.066-0.068c0.025-0.027,0.037-0.041,0.031-0.035
		c0.027-0.025,0.053-0.047,0.078-0.064c0.005-0.004,0.01-0.008,0.016-0.012c0.009-0.005,0.019-0.009,0.027-0.014
		c0.035-0.022,0.063-0.039,0.088-0.051c0.002-0.001,0.006-0.002,0.004-0.002h0.002c-0.003,0.001-0.012,0.006,0.008-0.002
		c0.008-0.004,0.014-0.006,0.021-0.01c0.137-0.057,0.381-0.066,0.506-0.053L43.525,26.211z" class="color000000 svgShape"/></svg>