<svg xmlns="http://www.w3.org/2000/svg" enable-background="new 0 0 64 64" viewBox="0 0 64 64"><path fill="#34a853" d="M61,5.5H3c-0.5522461,0-1,0.4477539-1,1v38c0,0.5527344,0.4477539,1,1,1c5.7693253,0.0043449,16.2080345-0.0031319,22,0v5
			h-5c-0.4306641,0-0.8125,0.2753906-0.9487305,0.6835938l-2,6c-0.2243404,0.6213875,0.2855797,1.3350754,0.9487534,1.316391
			C18,58.5,46,58.5,46,58.5c0.6599388,0.0179367,1.1763229-0.6943321,0.9487076-1.3164215
			c0.0000229,0.0000153-1.9999771-5.9999847-1.9999771-5.9999847C44.8125,50.7753906,44.4306641,50.5,44,50.5h-5v-5h22
			c0.5522461,0,1-0.4472656,1-1v-38C62,5.9477539,61.5522461,5.5,61,5.5z M10,43.5v-5.4199219
			c0-1.4775391,0.6210938-2.8730469,1.690918-3.859375c2.0292969,1.4804688,4.9130859,1.4785156,6.9414063-0.0019531
			c0.0571289,0.0507813,0.112793,0.1025391,0.1665039,0.1533203c0.8601437,0.7078133,1.1185665,2.6695213,2.5039196,1.8056641
			c-0.0000134,0,3.6826038-2.7822266,3.6826038-2.7822266c0.6650391-0.5053711,1.1694336-1.1723633,1.4526367-1.9140625
			l1.1240234-2.809082c0.4052868-0.9466057,1.7561703-0.3064632,1.3783913,0.5849972
			c0.0000267-0.0000362-1.6381569,3.835413-1.6381569,3.835413c-0.0737305,0.1699219-0.1777344,0.3164063-0.3134766,0.4355469
			l-6.340332,5.7402344c-0.2089844,0.1894531-0.3286133,0.4589844-0.3286133,0.7412109V43.5H10z M44.612793,56.5H19.387207
			l1.3334961-4c6.1260948,0,16.4323616,0,22.5585938,0L44.612793,56.5z M37,50.5H27v-5h10V50.5z M60,43.5
			c-9.7172699,0-28.1385117,0-37.6801758,0v-3.046875l5.9990234-5.4316406
			c0.3447266-0.3017578,0.6279297-0.6933594,0.8203125-1.1386719c0.2653236-0.7980919,1.9613857-4.0950584,1.8609009-4.9228172
			c0.0061169-3.004261-4.2053852-3.8092079-5.2984161-1.0214233c0.0000153-0.0000954-1.1259613,2.8138695-1.1259613,2.8138695
			c-0.2322788,0.946661-2.8080349,2.4657631-3.5786133,3.1499023c-0.2250977-0.3193359-0.4858398-0.6337891-0.7832031-0.9428711
			c-0.6262531-0.5724106-1.4927998-1.5004482-2.3027477-0.7446136c-1.5117054,1.4785004-3.9907093,1.4775238-5.5024281-0.0000153
			c-0.3398438-0.3325195-0.8696289-0.3789063-1.2651367-0.1088867C9.175293,33.4580078,8,35.6914063,8,38.0800781
			C8,38.0800781,8,43.5,8,43.5H4v-36h56V43.5z" class="color000000 svgShape"/><path fill="#34a853" d="M15.1616211 30.4047852c7.8253956-.2538624 7.8400688-11.6485138-.0001326-11.9047928C7.3189688 18.7582607 7.337359 30.1510696 15.1616211 30.4047852zM15.1616211 20.5c3.4455948-.0712261 5.2603836 4.4096394 2.7493992 6.7661572-2.3461199 2.4068203-6.796793.5753536-6.6765766-2.8141537C11.234375 22.2729492 12.9960938 20.5 15.1616211 20.5zM28.9907227 24.2597656c.5864258.0009766 1.0087891-.4291992 1.019043-.980957.0610962-3.2471313 1.6817627-6.2019653 4.3110962-8.0123901.751915 4.8125534 5.7272873 5.0842228 8.9751396 4.9014473 1.1766548-.0614204 1.4920845-.0770454 3.4364204 1.3814507 1.0529785.7919312 2.1680298 1.5111694 3.2583618 2.1157837-.0437012 2.687561-1.1437378 5.1987915-3.0603027 7.0438843C41.2399902 24.3529663 40.5200195 24.3334961 40 24.3334961c-2.3119278.0409641-4.7426186 2.2440681-2.665451 5.2211895.8619957.8946571-.6114845 1.9353695-1.5824738 2.9731464-1.1129417-.2713356-2.3230057-2.1759243-3.3682404-1.0484657-1.1582203 1.5653038 2.7379265 2.9955177 3.8489685 3.403492 7.6768875 2.7698326 16.2981796-3.695591 15.7473602-11.8427582C50.905941 7.577847 28.8154831 7.831984 28.0097504 23.2408333 27.9995117 23.7929688 28.4384766 24.2490234 28.9907227 24.2597656zM38.9985352 28.4453125c-.7952652-1.1188183-.4897079-1.8489895.8442383-2.0991211.6091919.4017334 2.5043945 2.2506104 5.5144653 5.6021118-2.198864 1.4110603-4.9678078 1.8860626-7.5145264 1.307312C38.9013672 32.2277832 40.4865112 30.6777344 38.9985352 28.4453125zM43.8974609 18.1474609c-1.4849739.0280952-2.1093788.1889076-4.6499023-.2172813-.7003784-.1165199-2.7426758-.4572182-3.072876-3.6604042 5.4646187-2.4043941 12.2558556.9970436 13.5367432 6.9091797-.6008301-.3806763-1.1992798-.7935181-1.777832-1.2287598C45.8945313 18.4208984 45.0483398 18.1474609 43.8974609 18.1474609z" class="color000000 svgShape"/></svg>