<svg xmlns="http://www.w3.org/2000/svg" viewBox="0 0 64 64"><circle cx="5.236" cy="25.978" r="2.028" fill="#c6f7d3" class="colorf7f7c6 svgShape"/><path fill="#b9faca" d="M34.068,41.275c-.791,.791-2.069,.791-2.86,0-.72-.73-.781-1.846-.193-2.637,.051-.081,.122-.162,.193-.233,.72-.72,1.856-.781,2.647-.183,.071,.051,.142,.112,.213,.183,.801,.791,.801,2.069,0,2.87Z" class="colorfac2b9 svgShape"/><path fill="#beeecb" d="M49.102,28.133c-.75,.75-1.957,.791-2.748,.101-.041-.03-.081-.061-.122-.101-.791-.791-.791-2.079,0-2.87,.791-.791,2.079-.791,2.87,0,.061,.061,.112,.122,.152,.183,.639,.791,.578,1.957-.152,2.687Z" class="colorbeeec1 svgShape"/><circle cx="58.764" cy="18.243" r="2.028" fill="#c1fad0" class="colorc1d7fa svgShape"/><path fill="#c1fad0" d="M8.934,34.132h2.939c1.018,0,1.844,.826,1.844,1.844v26.531H7.09v-26.531c0-1.018,.826-1.844,1.844-1.844Z" class="colorc2c1fa svgShape"/><path fill="#bef3cc" d="M19.691,40.061h2.939c1.018,0,1.844,.826,1.844,1.844v20.602h-6.628v-20.602c0-1.018,.826-1.844,1.844-1.844Z" class="colorf3d7be svgShape"/><path fill="#b9faca" d="M30.447,44.65h2.939c1.018,0,1.844,.826,1.844,1.844v16.014h-6.628v-16.014c0-1.018,.826-1.844,1.844-1.844Z" class="colorfac2b9 svgShape"/><path fill="#beeecb" d="M41.204,37.097h2.939c1.018,0,1.844,.826,1.844,1.844v23.567h-6.628v-23.567c0-1.018,.826-1.844,1.844-1.844Z" class="colorbeeec1 svgShape"/><path fill="#c1fad0" d="M51.96,31.379h2.939c1.018,0,1.844,.826,1.844,1.844v29.284h-6.628v-29.284c0-1.018,.826-1.844,1.844-1.844Z" class="colorc1d7fa svgShape"/><path fill="#beeecb" d="M40.494,28.685c.047,.42-.28,.794-.701,.794H18.183c-.42,0-.755-.374-.701-.794l1.059-8.252c.101-.763,.545-1.448,1.207-1.837l6.835-4.071v.49c0,.669,.265,1.269,.701,1.705s1.043,.708,1.705,.708c1.331,0,2.405-1.082,2.405-2.413v-.49l6.835,4.071c.662,.389,1.105,1.074,1.207,1.837l1.059,8.252Z" class="colorbeeec1 svgShape"/><path fill="#96e3ab" d="M25.797 14.993c.12.279.29.531.502.743.167.167.364.3.575.413-.18-.338-.291-.72-.291-1.133v-.49l-.786.468zM39.435 20.434c-.101-.763-.545-1.448-1.207-1.837l-.095-.057c.158.28.275.585.318.91l1.059 8.252c.047.42-.28.794-.701.794H17.507l-.024.19c-.054.42.28.794.701.794h21.61c.42 0 .747-.374.701-.794l-1.059-8.252z" class="color96e39a svgShape"/><path fill="#e6f9eb" d="M19.525 21.418c.101-.763.545-1.448 1.207-1.837l6.049-3.603c-.127-.294-.199-.618-.199-.962v-.49l-6.835 4.071c-.662.389-1.105 1.074-1.207 1.837l-1.059 8.252c-.054.42.28.794.701.794h.308l1.034-8.062zM28.267 17.705c.436.436 1.043.708 1.705.708 1.331 0 2.405-1.082 2.405-2.413v-.49l6.74 4.015c-.213-.377-.509-.704-.889-.927l-6.835-4.071v.49c0 1.331-1.074 2.413-2.405 2.413-.409 0-.791-.113-1.13-.296.111.209.243.405.409.571z" class="colore6f9e8 svgShape"/><path fill="#34a853" d="M39.793,29.971H18.183c-.344,0-.671-.149-.9-.408-.227-.259-.333-.602-.289-.941l1.059-8.251c.122-.917,.662-1.739,1.445-2.199l6.832-4.07c.152-.09,.341-.093,.495-.005,.154,.087,.249,.251,.249,.428v.49c0,.517,.197,.999,.556,1.357,.358,.358,.853,.564,1.357,.564,1.055,0,1.913-.862,1.913-1.921v-.49c0-.177,.095-.34,.249-.428,.154-.088,.344-.085,.495,.005l6.835,4.071c.781,.459,1.321,1.281,1.443,2.196l1.059,8.254s0,.006,0,.009c.038,.342-.072,.685-.302,.941-.227,.254-.55,.399-.888,.399Zm-13.681-14.594l-6.113,3.641c-.527,.309-.889,.862-.971,1.479l-1.059,8.25c-.011,.081,.028,.137,.051,.165,.025,.027,.078,.074,.161,.074h21.61c.08,0,.131-.044,.155-.071,.025-.028,.066-.087,.057-.174l-1.058-8.246c-.082-.615-.444-1.168-.968-1.476l-6.116-3.642c-.178,1.432-1.4,2.543-2.875,2.543-.774,0-1.503-.303-2.053-.852-.459-.458-.745-1.049-.823-1.691Z" class="color757677 svgShape"/><path fill="#b9faca" d="M33.968,6.393c-1.043,.157-2.145,.315-3.189,.482-.482,.069-1.023,.138-1.447-.128-.344-.216-.541-.63-.876-.886-.354-.256-.827-.305-1.27-.266-1.132,.098-2.273,.748-3.267,1.388,.344-3.11,2.48-5.491,5.068-5.491,2.421,0,4.438,2.086,4.98,4.901Z" class="colorfac2b9 svgShape"/><path fill="#bef3cc" d="M31.394,13.555v1.463c0,1.328-1.072,2.414-2.407,2.414-.661,0-1.268-.276-1.706-.708-.432-.438-.701-1.038-.701-1.706v-1.463c.715,.479,1.537,.748,2.407,.748s1.692-.27,2.407-.748Z" class="colorf3d7be svgShape"/><path fill="#bef3cc" d="M34.116,7.899c0,2.45-1.102,4.576-2.726,5.659-.709,.472-1.535,.748-2.401,.748-.876,0-1.693-.276-2.411-.748-1.614-1.083-2.716-3.208-2.716-5.659,0-.315,.02-.62,.059-.915,.994-.64,2.136-1.289,3.267-1.388,.443-.039,.915,.01,1.27,.266,.335,.256,.531,.669,.876,.886,.423,.266,.964,.197,1.447,.128,1.043-.167,2.145-.325,3.189-.482,.098,.482,.148,.984,.148,1.506Z" class="colorf3d7be svgShape"/><path fill="#34a853" d="M62.205 63H1.795c-.272 0-.492-.22-.492-.492s.22-.492.492-.492H62.205c.272 0 .492.22.492.492s-.22.492-.492.492zM35.337 29.971c-.272 0-.492-.22-.492-.492v-6.662c0-.272.22-.492.492-.492s.492.22.492.492v6.662c0 .272-.22.492-.492.492zM22.639 29.971c-.272 0-.492-.22-.492-.492v-6.662c0-.272.22-.492.492-.492s.492.22.492.492v6.662c0 .272-.22.492-.492.492zM33.855 38.714c-.139 0-.277-.059-.375-.173-.176-.207-.151-.518.056-.694l12.132-10.328c.207-.176.518-.151.694.056.176.207.151.518-.056.694l-12.132 10.328c-.093.079-.206.117-.319.117zM49.313 26.007c-.149 0-.296-.067-.393-.195-.164-.216-.122-.525.095-.689l7.88-5.973c.217-.165.526-.122.69.095.164.216.122.525-.095.689l-7.88 5.973c-.089.067-.194.1-.297.1zM31.015 39.13c-.073 0-.148-.016-.218-.051L6.872 27.259c-.244-.12-.344-.415-.223-.659.121-.242.415-.342.659-.223l23.926 11.82c.244.12.344.415.223.659-.086.173-.26.274-.442.274z" class="color757677 svgShape"/><path fill="#99edaf" d="M33.968,6.393c-.28,.042-.569,.085-.855,.127,.006,.131,.019,.26,.019,.394,0,2.45-1.102,4.576-2.726,5.659-.709,.472-1.535,.748-2.401,.748-.876,0-1.693-.276-2.411-.748-.093-.062-.178-.14-.267-.209,.367,.471,.784,.88,1.251,1.193,.718,.472,1.535,.748,2.411,.748,.866,0,1.693-.276,2.401-.748,1.624-1.083,2.726-3.208,2.726-5.659,0-.522-.049-1.024-.148-1.506Z" class="coloredbf99 svgShape"/><path fill="#e2f8e8" d="M24.845,8.883c0-.315,.02-.62,.059-.915,.994-.64,2.136-1.289,3.267-1.388,.443-.039,.915,.01,1.27,.266,.335,.256,.531,.669,.876,.886,.423,.266,.964,.197,1.447,.128,.763-.122,1.553-.239,2.333-.355-.019-.38-.056-.753-.129-1.112-1.043,.157-2.145,.315-3.189,.482-.482,.069-1.023,.138-1.447-.128-.344-.216-.541-.63-.876-.886-.354-.256-.827-.305-1.27-.266-1.132,.098-2.273,.748-3.267,1.388-.039,.295-.059,.6-.059,.915,0,2.309,.985,4.319,2.449,5.45-.901-1.156-1.465-2.724-1.465-4.466Z" class="colorf8ede2 svgShape"/><path fill="#34a853" d="M28.989,14.797c-.944,0-1.846-.279-2.681-.828-1.814-1.216-2.938-3.542-2.938-6.07,0-.336,.021-.664,.063-.98,.019-.143,.1-.27,.222-.348,1.03-.664,2.251-1.357,3.491-1.465,.651-.061,1.193,.062,1.601,.358,.21,.16,.362,.345,.496,.507,.121,.147,.235,.286,.352,.359,.283,.18,.745,.111,1.115,.058,.727-.116,1.491-.23,2.243-.34l.943-.14c.259-.043,.503,.132,.555,.387,.105,.511,.158,1.05,.158,1.604,0,2.532-1.129,4.858-2.945,6.068-.814,.543-1.739,.83-2.674,.83Zm-4.606-7.524c-.02,.204-.029,.412-.029,.626,0,2.205,.957,4.217,2.498,5.25,1.331,.876,2.955,.875,4.265,0,1.547-1.03,2.507-3.042,2.507-5.249,0-.323-.02-.64-.061-.948l-.468,.07c-.748,.111-1.507,.223-2.238,.34-.51,.072-1.199,.172-1.786-.198-.252-.158-.431-.375-.589-.567-.11-.133-.214-.259-.324-.343-.252-.184-.645-.19-.927-.167-.956,.083-1.964,.629-2.849,1.187Z" class="color757677 svgShape"/><path fill="#99edaf" d="M30.409,14.045c-.006,1.323-1.075,2.403-2.406,2.403-.408,0-.79-.115-1.13-.297,.112,.209,.243,.406,.408,.573,.438,.432,1.045,.708,1.706,.708,1.335,0,2.407-1.086,2.407-2.414v-1.463c-.309,.207-.641,.366-.985,.49Z" class="coloredbf99 svgShape"/><path fill="#e2f8e8" d="M27.564,16.002v-1.463c.715,.479,1.537,.748,2.407,.748,.494,0,.97-.096,1.422-.258,0-.004,.001-.007,.001-.011v-1.463c-.715,.479-1.537,.748-2.407,.748s-1.692-.27-2.407-.748v1.463c0,.667,.27,1.268,.701,1.706,.168,.165,.366,.298,.576,.411-.181-.339-.293-.72-.293-1.133Z" class="colorf8ede2 svgShape"/><path fill="#34a853" d="M28.987,17.923c-.756,0-1.503-.309-2.051-.849-.549-.557-.849-1.286-.849-2.057v-1.464c0-.182,.1-.349,.26-.434,.16-.085,.354-.076,.506,.026,1.301,.872,2.968,.871,4.267,0,.152-.102,.346-.111,.506-.026,.16,.086,.26,.253,.26,.434v1.464c0,1.602-1.3,2.905-2.899,2.905Zm-1.915-3.538v.632c0,.51,.199,.994,.56,1.361,.36,.354,.856,.56,1.355,.56,1.056,0,1.915-.862,1.915-1.921v-.632c-1.218,.538-2.613,.538-3.83,0Z" class="color757677 svgShape"/><path fill="#93f4ad" d="M31.665,2.451c.631,.81,1.1,1.819,1.319,2.958-1.043,.157-2.145,.315-3.189,.482-.482,.069-1.023,.138-1.447-.128-.344-.216-.541-.63-.876-.886-.354-.256-.827-.305-1.27-.266-.619,.054-1.239,.279-1.839,.571-.211,.564-.374,1.161-.445,1.801,.994-.64,2.136-1.289,3.267-1.388,.443-.039,.915,.01,1.27,.266,.335,.256,.531,.669,.876,.886,.423,.266,.964,.197,1.447,.128,1.043-.167,2.145-.325,3.189-.482-.321-1.669-1.168-3.068-2.304-3.942Z" class="colorf49f93 svgShape"/><path fill="#ddffe6" d="M29.973,2.476c.986,0,1.897,.359,2.676,.959-.929-1.193-2.219-1.943-3.66-1.943-2.588,0-4.724,2.382-5.068,5.491,.45-.29,.933-.575,1.429-.817,.814-2.177,2.568-3.691,4.624-3.691Z" class="colorffe2dd svgShape"/><path fill="#34a853" d="M23.92,7.476c-.09,0-.18-.025-.259-.074-.161-.1-.251-.284-.23-.472,.375-3.381,2.764-5.93,5.557-5.93,2.616,0,4.863,2.18,5.463,5.3,.025,.132-.004,.268-.082,.378s-.196,.183-.329,.202l-.946,.141c-.748,.111-1.507,.223-2.238,.34-.51,.072-1.199,.172-1.786-.198-.252-.158-.431-.375-.589-.567-.11-.133-.214-.259-.324-.343-.252-.184-.645-.19-.927-.167-1.027,.089-2.115,.713-3.045,1.311-.081,.053-.173,.079-.266,.079Zm3.535-2.384c.515,0,.949,.125,1.29,.372,.21,.16,.362,.345,.496,.507,.121,.147,.235,.286,.352,.359,.283,.18,.745,.111,1.115,.058,.727-.116,1.491-.23,2.243-.34l.419-.062c-.634-2.381-2.382-4.001-4.382-4.001s-3.764,1.664-4.385,4.011c.797-.444,1.665-.813,2.542-.889,.106-.01,.21-.014,.31-.014Z" class="color757677 svgShape"/><path fill="#9bf4b3" d="M55.621,31.518c.088,.214,.138,.447,.138,.693v29.314h-5.644v.984h6.628v-29.314c0-.757-.464-1.404-1.122-1.677Z" class="color9bc1f4 svgShape"/><path fill="#e6ffed" d="M51.1,34.178c0-1.002,.813-1.815,1.815-1.815h2.998c.245,0,.479,.05,.693,.138-.272-.659-.92-1.122-1.677-1.122h-2.998c-1.003,0-1.815,.813-1.815,1.815v29.314h.984v-28.33Z" class="colore6efff svgShape"/><path fill="#34a853" d="M56.744,63h-6.628c-.272,0-.492-.22-.492-.492v-29.313c0-1.272,1.035-2.308,2.307-2.308h2.998c1.272,0,2.308,1.035,2.308,2.308v29.313c0,.272-.22,.492-.492,.492Zm-6.136-.984h5.644v-28.821c0-.729-.593-1.323-1.323-1.323h-2.998c-.729,0-1.323,.594-1.323,1.323v28.821Z" class="color757677 svgShape"/><path fill="#96e3ab" d="M44.865,37.235c.088,.214,.138,.447,.138,.693v23.596h-5.644v.984h6.628v-23.596c0-.757-.464-1.404-1.123-1.677Z" class="color96e39a svgShape"/><path fill="#e6f9eb" d="M40.344,39.896c0-1.002,.813-1.815,1.815-1.815h2.998c.245,0,.479,.05,.693,.138-.272-.659-.92-1.122-1.677-1.122h-2.998c-1.002,0-1.815,.813-1.815,1.815v23.596h.984v-22.612Z" class="colore6f9e8 svgShape"/><path fill="#34a853" d="M45.987,63h-6.628c-.272,0-.492-.22-.492-.492v-23.596c0-1.272,1.035-2.308,2.307-2.308h2.998c1.272,0,2.308,1.035,2.308,2.308v23.596c0,.272-.22,.492-.492,.492Zm-6.136-.984h5.644v-23.104c0-.729-.593-1.323-1.323-1.323h-2.998c-.729,0-1.323,.594-1.323,1.323v23.104Z" class="color757677 svgShape"/><path fill="#93f4ad" d="M34.108,44.788c.088,.214,.138,.447,.138,.693v16.043h-5.644v.984h6.628v-16.043c0-.757-.464-1.404-1.122-1.677Z" class="colorf49f93 svgShape"/><path fill="#ddffe6" d="M29.587,47.449c0-1.002,.813-1.815,1.815-1.815h2.998c.246,0,.479,.05,.693,.138-.272-.659-.92-1.123-1.677-1.123h-2.998c-1.002,0-1.815,.813-1.815,1.815v16.043h.984v-15.059Z" class="colorffe2dd svgShape"/><path fill="#34a853" d="M35.231,63h-6.628c-.272,0-.492-.22-.492-.492v-16.043c0-1.272,1.035-2.308,2.308-2.308h2.998c1.272,0,2.307,1.035,2.307,2.308v16.043c0,.272-.22,.492-.492,.492Zm-6.136-.984h5.644v-15.551c0-.729-.593-1.323-1.323-1.323h-2.998c-.73,0-1.323,.594-1.323,1.323v15.551Z" class="color757677 svgShape"/><path fill="#99edaf" d="M23.351,40.2c.088,.214,.138,.447,.138,.693v20.631h-5.644v.984h6.628v-20.631c0-.757-.464-1.404-1.123-1.677Z" class="coloredbf99 svgShape"/><path fill="#e2f8e8" d="M18.83,42.861c0-1.002,.813-1.815,1.815-1.815h2.998c.245,0,.479,.05,.693,.138-.272-.659-.92-1.122-1.677-1.122h-2.998c-1.002,0-1.815,.813-1.815,1.815v20.631h.984v-19.647Z" class="colorf8ede2 svgShape"/><path fill="#34a853" d="M24.474,63h-6.628c-.272,0-.492-.22-.492-.492v-20.631c0-1.272,1.035-2.308,2.308-2.308h2.998c1.272,0,2.307,1.035,2.307,2.308v20.631c0,.272-.22,.492-.492,.492Zm-6.136-.984h5.644v-20.139c0-.729-.593-1.323-1.323-1.323h-2.998c-.73,0-1.323,.594-1.323,1.323v20.139Z" class="color757677 svgShape"/><path fill="#abf4bf" d="M12.595,34.27c.088,.214,.138,.447,.138,.693v26.561H7.09v.984h6.628v-26.561c0-.757-.464-1.404-1.123-1.677Z" class="colorabacf4 svgShape"/><path fill="#e6ffed" d="M8.074,36.931c0-1.002,.813-1.815,1.815-1.815h2.998c.245,0,.479,.05,.693,.138-.272-.659-.92-1.122-1.677-1.122h-2.998c-1.002,0-1.815,.813-1.815,1.815v26.561h.984v-25.577Z" class="colore7e6ff svgShape"/><path fill="#34a853" d="M13.717,63H7.09c-.272,0-.492-.22-.492-.492v-26.561c0-1.272,1.035-2.308,2.307-2.308h2.998c1.272,0,2.307,1.035,2.307,2.308v26.561c0,.272-.22,.492-.492,.492Zm-6.135-.984h5.643v-26.069c0-.729-.593-1.323-1.323-1.323h-2.998c-.729,0-1.323,.594-1.323,1.323v26.069Z" class="color757677 svgShape"/><path fill="#9bf4b3" d="M60.199,16.809c-.174-.174-.374-.302-.584-.4,.347,.75,.218,1.666-.4,2.284-.618,.618-1.534,.747-2.284,.4,.097,.211,.226,.411,.4,.584,.792,.792,2.076,.792,2.868,0,.792-.792,.792-2.076,0-2.868Z" class="color9bc1f4 svgShape"/><path fill="#e6ffed" d="M58.314,17.793c.618-.618,1.534-.747,2.284-.4-.097-.211-.226-.411-.4-.584-.792-.792-2.076-.792-2.868,0s-.792,2.076,0,2.868c.174,.174,.374,.302,.584,.4-.347-.75-.218-1.666,.4-2.284Z" class="colore6efff svgShape"/><path fill="#34a853" d="M58.764,20.762c-.645,0-1.291-.246-1.782-.737-.982-.983-.982-2.582,0-3.565,.983-.983,2.582-.981,3.564,0,.982,.982,.982,2.581,0,3.565h0c-.491,.491-1.136,.737-1.782,.737Zm0-4.055c-.393,0-.787,.149-1.086,.449-.599,.599-.599,1.573,0,2.173,.598,.601,1.573,.6,2.172,0h0c.599-.6,.599-1.574,0-2.173-.299-.3-.693-.449-1.086-.449Zm1.434,2.97h0Z" class="color757677 svgShape"/><path fill="#96e3ab" d="M49.254,25.445c-.04-.061-.091-.122-.152-.183-.175-.175-.376-.304-.589-.402,.354,.749,.22,1.672-.395,2.288-.617,.617-1.54,.746-2.29,.391,.098,.214,.228,.417,.404,.593,.041,.041,.081,.071,.122,.101,.791,.69,1.998,.649,2.748-.101,.73-.73,.791-1.896,.152-2.687Z" class="color96e39a svgShape"/><path fill="#e6f9eb" d="M47.216,26.247c.616-.616,1.532-.746,2.281-.402-.066-.14-.143-.275-.243-.4-.04-.061-.091-.122-.152-.183-.791-.791-2.079-.791-2.87,0-.791,.791-.791,2.079,0,2.87,.041,.041,.081,.071,.122,.101,.14,.122,.297,.213,.459,.29-.342-.749-.211-1.662,.404-2.277Z" class="colore6f9e8 svgShape"/><path fill="#34a853" d="M47.669,29.216c-.585,0-1.17-.202-1.639-.61-.031-.022-.088-.067-.146-.125-.476-.476-.738-1.108-.738-1.783s.262-1.307,.738-1.783c.984-.982,2.583-.984,3.566,0,.085,.085,.156,.17,.215,.26,.776,.956,.695,2.394-.215,3.305h0c-.488,.488-1.135,.735-1.781,.735Zm-.002-4.054c-.394,0-.787,.149-1.086,.449-.29,.289-.449,.676-.449,1.087s.16,.798,.449,1.087c.009,.007,.088,.071,.097,.079,.597,.521,1.51,.488,2.077-.079,.554-.555,.604-1.427,.117-2.03-.05-.072-.079-.107-.116-.143-.301-.3-.695-.45-1.089-.45Zm1.435,2.971h0Z" class="color757677 svgShape"/><path fill="#93f4ad" d="M34.068,38.405c-.071-.071-.142-.132-.213-.183-.115-.087-.238-.155-.364-.214,.349,.747,.218,1.658-.407,2.283-.618,.618-1.531,.746-2.28,.398,.097,.211,.23,.41,.404,.586,.791,.791,2.069,.791,2.86,0,.801-.801,.801-2.079,0-2.87Z" class="colorf49f93 svgShape"/><path fill="#ddffe6" d="M32,39.622c.051-.081,.122-.162,.193-.233,.616-.616,1.534-.745,2.282-.397-.099-.212-.23-.413-.407-.587-.071-.071-.142-.132-.213-.183-.791-.598-1.927-.537-2.647,.183-.071,.071-.142,.152-.193,.233-.588,.791-.527,1.907,.193,2.637,.173,.173,.371,.301,.58,.398-.306-.664-.235-1.45,.211-2.05Z" class="colorffe2dd svgShape"/><path fill="#34a853" d="M32.638,42.36c-.671,0-1.303-.262-1.778-.738-.885-.898-.985-2.275-.239-3.278,.043-.071,.131-.178,.238-.286,.883-.882,2.298-.981,3.293-.228,.082,.058,.173,.136,.265,.227,.478,.472,.743,1.101,.745,1.771,.002,.675-.262,1.312-.744,1.794h0c-.476,.476-1.107,.738-1.778,.738Zm-.003-4.052c-.395,0-.785,.151-1.079,.444-.074,.074-.11,.125-.124,.148-.475,.642-.413,1.481,.127,2.028,.575,.577,1.583,.579,2.161-.002h0c.296-.296,.458-.684,.457-1.096,0-.406-.162-.788-.454-1.076-.053-.053-.104-.096-.154-.133-.279-.21-.607-.313-.934-.313Z" class="color757677 svgShape"/><path fill="#a0eeb5" d="M6.67,24.544c-.174-.174-.374-.302-.584-.4,.347,.75,.219,1.666-.4,2.284-.618,.618-1.534,.747-2.284,.4,.098,.211,.226,.41,.4,.584,.792,.792,2.076,.792,2.868,0,.792-.792,.792-2.076,0-2.868Z" class="coloreeeea0 svgShape"/><path fill="#eefff3" d="M4.786,25.528c.618-.618,1.534-.747,2.284-.4-.097-.211-.226-.41-.4-.584-.792-.792-2.076-.792-2.868,0s-.792,2.076,0,2.868c.174,.174,.374,.302,.584,.4-.347-.75-.218-1.666,.4-2.284Z" class="colorffffee svgShape"/><path fill="#34a853" d="M5.236,28.497c-.646,0-1.291-.246-1.782-.737-.983-.982-.983-2.581,0-3.564,.952-.953,2.613-.953,3.565,0,.982,.982,.982,2.581,0,3.564-.491,.491-1.136,.737-1.782,.737Zm0-4.056c-.41,0-.796,.16-1.086,.451-.599,.599-.599,1.573,0,2.172,.599,.6,1.574,.601,2.172,0,.599-.599,.599-1.573,0-2.172-.29-.29-.676-.451-1.086-.451Z" class="color757677 svgShape"/></svg>