<svg xmlns="http://www.w3.org/2000/svg" enable-background="new 0 0 66 66" viewBox="0 0 66 66"><linearGradient id="a" x1="12.789" x2="12.789" y1="-1.23" y2="64.851" gradientUnits="userSpaceOnUse"><stop class="stopColorffc205 svgShape" offset="0" stop-color="#34a853"/><stop class="stopColorfc0299 svgShape" offset="1" stop-color="#02fc45"/></linearGradient><path fill="url(#a)" d="M14.6,41.02c0.35-0.22,0.46-0.68,0.24-1.03c-0.22-0.35-0.68-0.46-1.03-0.24c-0.7,0.44-1.33,0.44-2.03,0
			c-0.35-0.22-0.81-0.12-1.04,0.23c-0.22,0.35-0.12,0.81,0.23,1.03c0.59,0.37,1.2,0.56,1.81,0.56S14.01,41.39,14.6,41.02z"/><linearGradient id="b" x1="10.815" x2="10.815" y1="-1.229" y2="64.852" gradientUnits="userSpaceOnUse"><stop class="stopColorffc205 svgShape" offset="0" stop-color="#34a853"/><stop class="stopColorfc0299 svgShape" offset="1" stop-color="#02fc45"/></linearGradient><circle cx="10.81" cy="36.06" r=".75" fill="url(#b)"/><linearGradient id="c" x1="14.762" x2="14.762" y1="-1.229" y2="64.852" gradientUnits="userSpaceOnUse"><stop class="stopColorffc205 svgShape" offset="0" stop-color="#34a853"/><stop class="stopColorfc0299 svgShape" offset="1" stop-color="#02fc45"/></linearGradient><circle cx="14.76" cy="36.06" r=".75" fill="url(#c)"/><linearGradient id="d" x1="53.214" x2="53.214" y1="-1.23" y2="64.851" gradientUnits="userSpaceOnUse"><stop class="stopColorffc205 svgShape" offset="0" stop-color="#34a853"/><stop class="stopColorfc0299 svgShape" offset="1" stop-color="#02fc45"/></linearGradient><path fill="url(#d)" d="M55.03,41.02c0.35-0.22,0.46-0.68,0.24-1.03c-0.22-0.35-0.68-0.46-1.03-0.24c-0.7,0.44-1.33,0.44-2.03,0
			c-0.35-0.22-0.81-0.12-1.04,0.23c-0.22,0.35-0.12,0.81,0.23,1.03c0.59,0.37,1.2,0.56,1.81,0.56S54.43,41.39,55.03,41.02z"/><linearGradient id="e" x1="51.241" x2="51.241" y1="-1.229" y2="64.852" gradientUnits="userSpaceOnUse"><stop class="stopColorffc205 svgShape" offset="0" stop-color="#34a853"/><stop class="stopColorfc0299 svgShape" offset="1" stop-color="#02fc45"/></linearGradient><circle cx="51.24" cy="36.06" r=".75" fill="url(#e)"/><linearGradient id="f" x1="55.188" x2="55.188" y1="-1.229" y2="64.852" gradientUnits="userSpaceOnUse"><stop class="stopColorffc205 svgShape" offset="0" stop-color="#34a853"/><stop class="stopColorfc0299 svgShape" offset="1" stop-color="#02fc45"/></linearGradient><circle cx="55.19" cy="36.06" r=".75" fill="url(#f)"/><linearGradient id="g" x1="20.323" x2="20.323" y1="-1.229" y2="64.852" gradientUnits="userSpaceOnUse"><stop class="stopColorffc205 svgShape" offset="0" stop-color="#34a853"/><stop class="stopColorfc0299 svgShape" offset="1" stop-color="#02fc45"/></linearGradient><path fill="url(#g)" d="M19.23,23.93h2.18c0.41,0,0.75-0.34,0.75-0.75s-0.34-0.75-0.75-0.75h-2.18c-0.41,0-0.75,0.34-0.75,0.75
			S18.82,23.93,19.23,23.93z"/><linearGradient id="h" x1="47.167" x2="47.167" y1="-1.229" y2="64.852" gradientUnits="userSpaceOnUse"><stop class="stopColorffc205 svgShape" offset="0" stop-color="#34a853"/><stop class="stopColorfc0299 svgShape" offset="1" stop-color="#02fc45"/></linearGradient><path fill="url(#h)" d="M45.33,23.18c0,0.41,0.34,0.75,0.75,0.75h2.18c0.41,0,0.75-0.34,0.75-0.75s-0.34-0.75-0.75-0.75h-2.18
			C45.67,22.43,45.33,22.77,45.33,23.18z"/><linearGradient id="i" x1="46.358" x2="46.358" y1="-1.229" y2="64.852" gradientUnits="userSpaceOnUse"><stop class="stopColorffc205 svgShape" offset="0" stop-color="#34a853"/><stop class="stopColorfc0299 svgShape" offset="1" stop-color="#02fc45"/></linearGradient><path fill="url(#i)" d="M44.63,19.22c0.11,0.3,0.4,0.49,0.71,0.49c0.08,0,0.17-0.01,0.26-0.05l2.05-0.74
			c0.39-0.14,0.59-0.57,0.45-0.96c-0.14-0.39-0.57-0.59-0.96-0.45l-2.05,0.74C44.69,18.4,44.49,18.83,44.63,19.22z"/><linearGradient id="j" x1="44.027" x2="44.027" y1="-1.229" y2="64.852" gradientUnits="userSpaceOnUse"><stop class="stopColorffc205 svgShape" offset="0" stop-color="#34a853"/><stop class="stopColorfc0299 svgShape" offset="1" stop-color="#02fc45"/></linearGradient><path fill="url(#j)" d="M43.19,16c0.17,0,0.34-0.06,0.48-0.18l1.67-1.4c0.32-0.27,0.36-0.74,0.09-1.06
			c-0.27-0.32-0.74-0.36-1.06-0.09l-1.67,1.4c-0.32,0.27-0.36,0.74-0.09,1.06C42.77,15.91,42.98,16,43.19,16z"/><linearGradient id="k" x1="40.456" x2="40.456" y1="-1.229" y2="64.852" gradientUnits="userSpaceOnUse"><stop class="stopColorffc205 svgShape" offset="0" stop-color="#34a853"/><stop class="stopColorfc0299 svgShape" offset="1" stop-color="#02fc45"/></linearGradient><path fill="url(#k)" d="M39.54,13.15c0.12,0.07,0.25,0.1,0.37,0.1c0.26,0,0.51-0.13,0.65-0.38l1.09-1.88
			c0.21-0.36,0.08-0.82-0.27-1.02c-0.36-0.21-0.82-0.08-1.02,0.27l-1.09,1.88C39.06,12.49,39.18,12.94,39.54,13.15z"/><linearGradient id="l" x1="36.076" x2="36.076" y1="-1.229" y2="64.852" gradientUnits="userSpaceOnUse"><stop class="stopColorffc205 svgShape" offset="0" stop-color="#34a853"/><stop class="stopColorfc0299 svgShape" offset="1" stop-color="#02fc45"/></linearGradient><path fill="url(#l)" d="M35.76,11.78c0.04,0.01,0.09,0.01,0.13,0.01c0.36,0,0.67-0.26,0.74-0.62L37,9.02
			c0.07-0.41-0.2-0.8-0.61-0.87c-0.41-0.07-0.8,0.2-0.87,0.61l-0.38,2.14C35.08,11.31,35.35,11.7,35.76,11.78z"/><linearGradient id="m" x1="31.415" x2="31.415" y1="-1.229" y2="64.852" gradientUnits="userSpaceOnUse"><stop class="stopColorffc205 svgShape" offset="0" stop-color="#34a853"/><stop class="stopColorfc0299 svgShape" offset="1" stop-color="#02fc45"/></linearGradient><path fill="url(#m)" d="M31.6,11.79c0.04,0,0.09,0,0.13-0.01c0.41-0.07,0.68-0.46,0.61-0.87l-0.38-2.14
			c-0.07-0.41-0.46-0.68-0.87-0.61c-0.41,0.07-0.68,0.46-0.61,0.87l0.38,2.14C30.93,11.53,31.25,11.79,31.6,11.79z"/><linearGradient id="n" x1="27.034" x2="27.034" y1="-1.229" y2="64.852" gradientUnits="userSpaceOnUse"><stop class="stopColorffc205 svgShape" offset="0" stop-color="#34a853"/><stop class="stopColorfc0299 svgShape" offset="1" stop-color="#02fc45"/></linearGradient><path fill="url(#n)" d="M26.93,12.88c0.14,0.24,0.39,0.38,0.65,0.38c0.13,0,0.26-0.03,0.37-0.1c0.36-0.21,0.48-0.67,0.27-1.02
			l-1.09-1.88c-0.21-0.36-0.66-0.48-1.02-0.27c-0.36,0.21-0.48,0.67-0.27,1.02L26.93,12.88z"/><linearGradient id="o" x1="23.463" x2="23.463" y1="-1.229" y2="64.852" gradientUnits="userSpaceOnUse"><stop class="stopColorffc205 svgShape" offset="0" stop-color="#34a853"/><stop class="stopColorfc0299 svgShape" offset="1" stop-color="#02fc45"/></linearGradient><path fill="url(#o)" d="M23.81,15.83C23.96,15.95,24.13,16,24.3,16c0.21,0,0.43-0.09,0.57-0.27c0.27-0.32,0.23-0.79-0.09-1.06
			l-1.67-1.4c-0.32-0.27-0.79-0.23-1.06,0.09c-0.27,0.32-0.23,0.79,0.09,1.06L23.81,15.83z"/><linearGradient id="p" x1="21.132" x2="21.132" y1="-1.229" y2="64.852" gradientUnits="userSpaceOnUse"><stop class="stopColorffc205 svgShape" offset="0" stop-color="#34a853"/><stop class="stopColorfc0299 svgShape" offset="1" stop-color="#02fc45"/></linearGradient><path fill="url(#p)" d="M19.85,18.92l2.04,0.74c0.08,0.03,0.17,0.05,0.26,0.05c0.31,0,0.59-0.19,0.71-0.49
			c0.14-0.39-0.06-0.82-0.45-0.96l-2.04-0.74c-0.39-0.14-0.82,0.06-0.96,0.45C19.26,18.35,19.46,18.78,19.85,18.92z"/><linearGradient id="q" x1="33" x2="33" y1="-1.229" y2="64.852" gradientUnits="userSpaceOnUse"><stop class="stopColorffc205 svgShape" offset="0" stop-color="#34a853"/><stop class="stopColorfc0299 svgShape" offset="1" stop-color="#02fc45"/></linearGradient><path fill="url(#q)" d="M59.06,44.06h-2.3v-0.19c1.76-1.02,3.04-2.78,3.39-4.89c0.05-0.24,0.08-0.5,0.1-0.77
			c1.71-1.09,2.77-2.97,2.77-5.02v-0.9c0-4.27-3.15-7.75-7.02-7.75h-3.73c-1.86,0-3.45,1.25-4.12,3.02
			c-2.64,0.23-4.73,2.67-4.73,5.63c0,2.05,1.06,3.93,2.78,5.03c0.16,2.41,1.51,4.48,3.48,5.64v0.21h-2.3
			c-0.05,0-0.09,0.02-0.14,0.03c-1.29-1.87-3.45-3.1-5.9-3.1h-3.21v-0.37c1.2-0.02,2.17-0.99,2.17-2.2c0-1.2-0.97-2.18-2.16-2.2
			c0.06-1.73,0.88-3.41,2.29-4.63c0.38-0.33,0.75-0.7,1.07-1.08c0.27-0.32,0.23-0.79-0.08-1.06c-0.32-0.27-0.79-0.23-1.06,0.08
			c-0.28,0.33-0.58,0.64-0.91,0.92c-1.73,1.51-2.74,3.6-2.81,5.76h-5.62c-0.1-2.15-1.13-4.21-2.89-5.7
			c-2.27-1.93-3.39-4.86-2.98-7.84c0.53-3.86,3.73-6.97,7.6-7.4c2.51-0.28,4.92,0.49,6.78,2.16c1.84,1.65,2.89,4,2.89,6.47
			c0,1.32-0.29,2.59-0.86,3.77c-0.18,0.37-0.02,0.82,0.35,1c0.38,0.18,0.82,0.02,1-0.35c0.67-1.38,1.01-2.87,1.01-4.42
			c0-2.89-1.24-5.66-3.39-7.59c-2.16-1.93-5.04-2.85-7.95-2.53c-4.55,0.5-8.3,4.16-8.92,8.68c-0.48,3.49,0.83,6.92,3.49,9.19
			c1.42,1.2,2.26,2.85,2.36,4.56c-1.19,0.02-2.16,1-2.16,2.2c0,1.15,0.89,2.08,2.01,2.18v0.39h-3.21c-2.53,0-4.75,1.32-6.03,3.3
			c-0.49-0.14-0.99-0.23-1.5-0.23h-2.3v-0.19c1.76-1.02,3.04-2.78,3.39-4.89c0.05-0.24,0.08-0.5,0.1-0.77
			c1.71-1.09,2.77-2.97,2.77-5.02v-0.9c0-4.27-3.15-7.75-7.02-7.75h-3.73c-1.86,0-3.45,1.25-4.12,3.02
			c-2.64,0.23-4.73,2.67-4.73,5.63c0,2.05,1.06,3.93,2.78,5.03c0.16,2.41,1.51,4.48,3.48,5.64v0.21h-2.3
			c-3.14,0-5.69,2.55-5.69,5.69v7.35c0,0.41,0.34,0.75,0.75,0.75h14.74c0.41,0,0.75-0.34,0.75-0.75s-0.34-0.75-0.75-0.75H2.75v-6.6
			c0-2.31,1.88-4.19,4.19-4.19h2.34c0.18,1.78,1.68,3.19,3.5,3.19c1.83,0,3.33-1.4,3.51-3.19h2.34c0.28,0,0.55,0.03,0.82,0.08
			c-0.29,0.78-0.46,1.63-0.46,2.51v8.95c0,0.41,0.34,0.75,0.75,0.75h28.02c0.41,0,0.75-0.34,0.75-0.75v-8.95
			c0-0.92-0.18-1.79-0.49-2.6h1.69c0.18,1.78,1.68,3.19,3.5,3.19c1.83,0,3.33-1.4,3.51-3.19h2.34c2.31,0,4.19,1.88,4.19,4.19v6.6
			h-12.5c-0.41,0-0.75,0.34-0.75,0.75s0.34,0.75,0.75,0.75H64c0.41,0,0.75-0.34,0.75-0.75v-7.35C64.75,46.62,62.2,44.06,59.06,44.06
			z M4.48,33.19c0-1.99,1.24-3.67,2.89-4.06v0.3c0,0.41,0.34,0.75,0.75,0.75s0.75-0.34,0.75-0.75c0-1.87,1.33-3.39,2.96-3.39h3.73
			c3.05,0,5.52,2.8,5.52,6.25v0.9c0,1.17-0.46,2.27-1.25,3.09v-3.27c0-0.25-0.12-0.48-0.33-0.62c-0.2-0.14-0.46-0.17-0.69-0.08
			c-0.61,0.24-1.26,0.35-1.95,0.35c-2.09,0-4-1.15-4.98-3c-0.13-0.24-0.38-0.4-0.65-0.4c-0.3-0.01-0.53,0.14-0.66,0.38
			c-0.17,0.3-0.37,0.56-0.61,0.8c-0.88,0.93-2.12,1.42-3.4,1.27c-0.21-0.02-0.43,0.04-0.58,0.19c-0.16,0.14-0.25,0.35-0.25,0.56
			v3.82C4.95,35.47,4.48,34.37,4.48,33.19z M7.24,37.76v-4.52c1.46-0.07,2.81-0.69,3.81-1.74c0.05-0.05,0.1-0.1,0.15-0.15
			c1.33,1.76,3.42,2.82,5.68,2.82c0.5,0,0.99-0.05,1.47-0.15v3.75c0,0.01,0,0.02,0,0.02c0,0,0,0,0,0.01c0,0,0,0,0,0
			c0,0.33-0.03,0.61-0.09,0.91c-0.45,2.68-2.75,4.62-5.47,4.62C9.72,43.32,7.24,40.83,7.24,37.76z M14.83,45.2
			c0,1.13-0.92,2.05-2.05,2.05c-1.13,0-2.04-0.92-2.04-2.05v-0.68c0.65,0.2,1.33,0.3,2.04,0.3c0.71,0,1.4-0.11,2.05-0.31V45.2z
			 M30.87,40.62h2.88l2.88,0v1.62c0,1.59-1.29,2.89-2.89,2.89c-1.58,0-2.87-1.29-2.87-2.89V40.62z M28.85,38.42
			c0-0.39,0.31-0.7,0.7-0.7h8.54c0.39,0,0.7,0.31,0.7,0.7s-0.31,0.7-0.7,0.7h-4.35l-3.63,0c0,0,0,0,0,0h-0.56
			C29.17,39.12,28.85,38.81,28.85,38.42z M47,56.36H20.49v-8.2c0-3.13,2.54-5.67,5.67-5.67h3.24c0.13,2.3,2.02,4.14,4.35,4.14
			c2.33,0,4.23-1.84,4.36-4.14h3.23c3.13,0,5.67,2.54,5.67,5.67V56.36z M44.91,33.19c0-1.99,1.24-3.67,2.89-4.06v0.3
			c0,0.41,0.34,0.75,0.75,0.75s0.75-0.34,0.75-0.75c0-1.87,1.33-3.39,2.96-3.39h3.73c3.05,0,5.52,2.8,5.52,6.25v0.9
			c0,1.17-0.46,2.27-1.25,3.09v-3.27c0-0.25-0.12-0.48-0.33-0.62c-0.2-0.14-0.46-0.17-0.69-0.08c-0.61,0.24-1.26,0.35-1.95,0.35
			c-2.09,0-4-1.15-4.98-3c-0.13-0.24-0.38-0.4-0.65-0.4c-0.29-0.01-0.53,0.14-0.66,0.38c-0.17,0.3-0.37,0.56-0.61,0.8
			c-0.88,0.93-2.12,1.42-3.4,1.27c-0.21-0.02-0.43,0.04-0.58,0.19c-0.16,0.14-0.25,0.35-0.25,0.56v3.82
			C45.37,35.47,44.91,34.37,44.91,33.19z M47.66,37.76v-4.52c1.46-0.07,2.81-0.69,3.81-1.74c0.05-0.05,0.1-0.1,0.15-0.15
			c1.33,1.76,3.42,2.82,5.68,2.82c0.5,0,0.99-0.05,1.47-0.15v3.75c0,0.01,0,0.02,0,0.02c0,0,0,0,0,0.01c0,0,0,0,0,0
			c0,0.33-0.03,0.61-0.09,0.91c-0.45,2.68-2.75,4.62-5.47,4.62C50.15,43.32,47.66,40.83,47.66,37.76z M55.26,45.2
			c0,1.13-0.92,2.05-2.05,2.05c-1.13,0-2.04-0.92-2.04-2.05v-0.68c0.65,0.2,1.33,0.3,2.04,0.3c0.71,0,1.4-0.11,2.05-0.31V45.2z"/></svg>